<?xml version="1.0" standalone="no"?>
<!DOCTYPE svg PUBLIC "-//W3C//DTD SVG 20010904//EN"
 "http://www.w3.org/TR/2001/REC-SVG-20010904/DTD/svg10.dtd">
<svg version="1.0" xmlns="http://www.w3.org/2000/svg"
 width="954.000000pt" height="1220.000000pt" viewBox="0 0 954.000000 1220.000000"
 preserveAspectRatio="xMidYMid meet">

<g transform="translate(0.000000,1220.000000) scale(0.100000,-0.100000)"
fill="#000000" stroke="none">
<path d="M5015 10225 c-66 -7 -181 -20 -255 -29 -74 -9 -183 -16 -242 -16 -65
0 -108 -4 -108 -10 0 -5 17 -10 38 -10 l37 0 -30 -20 c-16 -11 -37 -20 -45
-20 -9 0 -36 -21 -60 -46 -64 -65 -226 -210 -301 -269 -75 -58 -199 -175 -199
-187 0 -19 25 -5 61 35 24 27 38 36 39 26 0 -20 -78 -93 -238 -224 -67 -55
-117 -102 -112 -103 6 -2 24 7 39 20 16 12 73 59 127 103 55 44 143 121 196
172 53 51 99 93 102 93 3 0 5 -55 5 -122 -1 -68 -4 -112 -6 -98 -21 132 -43
174 -43 83 0 -57 25 -277 39 -350 8 -39 7 -72 -5 -139 -10 -59 -12 -90 -5 -97
12 -12 18 1 24 48 4 27 4 26 6 -7 0 -20 6 -40 11 -43 6 -3 10 -19 10 -34 0
-23 26 -52 154 -169 85 -78 159 -142 165 -142 15 0 14 13 -4 36 -23 31 -17 40
10 14 19 -18 25 -34 25 -65 0 -23 5 -78 11 -121 6 -44 9 -98 7 -120 l-4 -39
-8 33 c-5 17 -12 32 -15 32 -17 0 -31 -27 -31 -57 0 -27 4 -33 21 -33 42 0 48
-25 48 -190 -1 -85 -4 -198 -8 -251 l-6 -97 -90 -74 c-49 -41 -112 -99 -140
-129 -27 -30 -53 -54 -57 -54 -4 0 -20 -18 -36 -40 -16 -22 -69 -78 -116 -125
-47 -46 -86 -90 -86 -98 0 -7 -36 -50 -79 -95 -57 -59 -77 -87 -71 -96 6 -11
37 15 119 98 61 61 123 129 138 149 34 47 145 162 156 162 5 0 -20 -32 -54
-70 -34 -39 -59 -73 -56 -77 4 -3 14 0 22 7 15 12 15 10 4 -16 -7 -16 -19 -34
-26 -40 -10 -8 -11 -18 -4 -36 12 -32 22 -150 26 -303 2 -66 6 -237 9 -380 4
-143 9 -308 13 -367 4 -82 3 -111 -7 -124 -11 -13 -11 -17 0 -24 10 -6 13 -47
13 -177 1 -146 -8 -259 -40 -505 -4 -39 -3 -48 10 -48 19 0 26 17 20 55 -3 17
0 41 6 55 8 20 10 12 10 -47 1 -64 -1 -73 -17 -73 -10 0 -44 -32 -77 -72 -105
-126 -147 -169 -266 -269 -64 -54 -154 -138 -199 -187 -61 -68 -86 -88 -101
-85 -10 3 -19 0 -19 -6 0 -19 -18 -12 -25 9 -13 42 -25 17 -25 -52 0 -40 -7
-131 -15 -203 -17 -154 -19 -260 -5 -337 10 -54 9 -59 -24 -125 -43 -85 -63
-160 -47 -176 8 -8 15 -7 28 6 16 16 16 17 0 17 -14 0 -16 6 -11 28 8 34 56
144 61 139 6 -7 -35 -199 -61 -287 -14 -47 -39 -149 -56 -228 -16 -79 -36
-166 -45 -195 -17 -57 -20 -96 -6 -81 9 9 47 165 76 312 9 46 23 100 31 120
l14 37 -5 -45 c-24 -237 -27 -282 -16 -293 8 -8 11 6 12 56 1 37 2 70 3 75 1
4 6 36 10 72 31 256 76 425 138 513 11 15 16 27 12 27 -4 0 1 9 12 21 13 14
25 18 42 14 13 -3 21 -2 18 3 -3 6 0 15 7 21 14 11 318 113 323 108 2 -1 -9
-23 -24 -47 -15 -25 -28 -56 -29 -70 -1 -14 -9 -59 -18 -100 -21 -96 -42 -399
-29 -408 5 -4 9 -14 9 -22 -1 -8 2 -19 6 -25 3 -5 9 -80 12 -165 6 -162 22
-244 67 -348 12 -29 28 -51 34 -49 6 2 21 38 33 79 12 42 31 94 42 116 44 87
202 303 281 384 30 32 60 65 66 75 14 22 36 30 28 9 -8 -20 12 -21 23 -2 12
20 87 58 91 46 3 -7 8 -7 18 0 19 17 68 3 99 -28 15 -15 54 -72 87 -127 l60
-100 -5 -125 c-3 -69 -13 -159 -22 -200 -23 -105 -91 -272 -130 -317 -17 -21
-37 -49 -44 -61 -12 -22 -81 -61 -108 -62 -8 0 -5 13 8 38 l21 37 -35 -39
c-30 -34 -37 -38 -51 -27 -18 15 -21 69 -6 115 5 17 16 56 25 87 10 39 34 82
78 140 76 101 100 159 66 159 -4 0 -36 -39 -72 -87 -36 -49 -87 -108 -113
-133 -49 -47 -50 -40 -2 21 31 41 34 49 16 49 -15 0 -101 -118 -158 -217 -55
-95 -120 -344 -120 -462 0 -74 55 -242 106 -322 40 -65 94 -77 94 -23 l0 27
23 -21 c33 -31 129 -72 186 -79 56 -6 117 12 160 48 37 30 18 34 -32 5 -59
-35 -144 -36 -220 -2 -77 34 -77 45 1 29 168 -34 170 -34 263 55 65 60 97 84
194 138 17 9 66 57 110 107 44 49 105 118 136 152 56 62 86 122 75 151 -3 9
12 58 33 108 79 186 89 363 28 520 -59 150 -123 183 -202 103 -51 -50 -66 -96
-74 -222 l-6 -90 -18 72 c-35 148 -18 444 32 546 17 34 17 38 3 35 -10 -2 -26
-27 -38 -63 -57 -157 -58 -393 -4 -600 32 -122 49 -162 76 -172 27 -10 28 6 5
72 -20 57 -23 79 -19 192 3 114 6 133 28 172 35 62 72 88 107 75 22 -7 38 -29
73 -99 43 -87 45 -94 48 -196 5 -139 -13 -222 -84 -390 -66 -158 -95 -206
-187 -317 -63 -76 -171 -171 -182 -160 -3 2 27 48 66 102 90 127 144 217 168
282 27 70 14 119 -20 78 -10 -13 -10 -17 1 -24 11 -7 9 -19 -10 -64 -23 -57
-43 -84 -33 -45 4 16 2 20 -8 17 -8 -2 -24 -32 -35 -66 -26 -75 -55 -125 -134
-231 -67 -91 -95 -112 -175 -131 -70 -17 -86 -36 -24 -27 25 3 54 9 64 13 16
6 13 0 -9 -24 -17 -19 -32 -28 -36 -22 -4 7 -22 3 -51 -9 -24 -12 -57 -21 -73
-21 -30 0 -96 36 -183 101 -29 21 -57 39 -64 39 -19 0 9 -27 85 -82 70 -49 70
-50 33 -43 -90 15 -140 63 -176 166 -34 98 -25 385 15 446 18 28 18 33 0 33
-11 0 -13 7 -6 29 4 16 12 36 17 45 13 24 165 197 169 193 5 -4 -22 -89 -41
-132 -8 -16 -11 -34 -8 -39 4 -5 -1 -7 -9 -3 -35 13 -59 -106 -35 -166 15 -35
19 -37 59 -37 62 1 117 29 172 91 124 138 188 282 226 507 22 131 25 199 9
255 -9 35 -76 153 -127 225 -19 26 -20 32 -8 32 9 0 16 4 16 8 0 8 -74 25
-157 38 -49 7 -52 7 -55 -3 -2 -5 -29 -24 -61 -43 -108 -65 -237 -191 -237
-231 0 -10 -32 -64 -71 -120 -75 -109 -109 -170 -129 -234 -18 -58 -25 -61
-43 -17 -67 168 -64 553 8 902 8 41 22 95 30 120 13 39 19 45 42 45 16 0 33
-4 39 -8 7 -4 14 3 17 19 5 30 -15 43 -38 24 -20 -16 -19 0 1 28 11 16 20 20
27 13 8 -6 44 -1 103 14 59 15 106 21 136 18 32 -4 87 5 193 32 156 39 201 44
232 26 16 -9 14 -10 -12 -11 -16 0 -37 -5 -45 -10 -18 -11 -13 -12 62 -10 48
1 59 -2 70 -19 16 -27 31 -27 23 -1 -8 26 -7 26 197 -4 90 -14 205 -28 254
-32 131 -10 94 10 -46 25 -107 11 -196 24 -262 37 -17 3 -28 12 -28 21 0 29
303 3 518 -43 28 -6 32 -10 32 -39 0 -17 15 -63 34 -101 18 -38 48 -104 66
-146 17 -43 49 -105 71 -138 44 -68 93 -162 104 -200 4 -14 22 -59 40 -100 19
-41 46 -129 60 -195 24 -104 27 -134 22 -225 -18 -331 -185 -464 -297 -237
-30 62 -59 175 -60 231 0 39 9 29 14 -15 7 -67 60 -44 91 39 9 26 28 71 42
101 30 66 27 104 -22 229 -71 184 -122 274 -175 312 -41 29 -115 41 -175 28
-77 -16 -134 -50 -197 -116 -49 -51 -58 -66 -58 -97 0 -22 4 -34 10 -30 6 3
10 17 10 31 0 55 151 176 235 188 l46 7 68 -68 c119 -122 206 -288 218 -421 6
-60 4 -66 -18 -83 -21 -15 -22 -19 -7 -24 14 -6 15 -11 6 -31 -15 -32 -36 -30
-51 4 -6 15 -15 29 -19 32 -4 3 -13 23 -20 45 -30 93 -39 9 -17 -171 29 -243
155 -389 269 -312 74 50 139 235 140 401 1 173 -107 487 -239 697 -26 41 -56
98 -66 125 -10 28 -31 77 -48 110 -43 87 -47 107 -26 129 17 17 23 18 61 7 99
-30 146 -62 274 -186 70 -68 132 -122 136 -119 5 3 0 15 -9 27 -26 32 -223
219 -253 240 -14 10 5 2 42 -17 133 -70 268 -184 268 -227 0 -39 20 -17 21 24
1 23 3 33 6 22 7 -29 23 -43 23 -20 0 16 4 15 30 -10 44 -42 37 -10 -9 40
l-40 43 20 63 c19 61 18 119 -2 119 -12 0 -11 100 2 225 18 179 27 340 18 345
-4 3 0 60 11 125 28 182 33 225 23 225 -7 0 -36 -91 -99 -308 l-16 -52 -41 32
c-23 18 -105 84 -182 148 -77 63 -159 130 -182 148 -24 19 -52 47 -63 63 -24
33 -19 54 10 39 28 -15 39 10 12 28 -24 16 -29 38 -9 45 9 3 9 7 0 18 -6 8
-13 74 -17 164 -3 83 -8 183 -12 224 -6 63 -5 75 9 83 20 11 22 28 4 28 -11 0
-16 30 -21 123 -3 67 -9 134 -12 150 -5 21 -3 27 11 27 17 0 17 1 0 20 -28 30
-4 24 38 -11 27 -22 37 -26 37 -15 0 8 -13 25 -29 37 -18 13 -27 27 -24 36 3
8 -3 21 -14 28 -20 14 -20 26 -22 317 0 167 -4 349 -7 406 -5 94 -4 105 14
120 17 15 20 37 26 225 7 213 4 233 -31 190 -12 -16 -14 -5 -10 85 3 70 1 102
-7 99 -19 -6 -27 -81 -24 -235 2 -109 0 -152 -8 -152 -11 0 -188 176 -252 250
-51 60 -142 191 -142 206 0 7 -16 26 -35 41 -41 33 -44 43 -10 43 14 0 25 5
25 10 0 6 -18 10 -40 10 l-40 0 0 123 c0 68 5 148 10 179 6 30 7 66 3 79 -5
13 -6 126 -3 251 l5 227 35 36 c19 20 44 41 55 47 11 6 0 -10 -24 -36 -25 -25
-42 -49 -38 -52 9 -10 37 16 124 116 41 46 84 91 95 98 20 14 20 13 13 -62 -5
-48 -4 -76 3 -76 5 0 13 32 16 71 8 81 20 119 37 119 12 0 8 -192 -8 -347 -4
-44 -2 -63 6 -63 6 0 11 17 11 40 0 33 3 40 18 38 14 -2 17 4 16 37 -1 22 2
148 7 280 5 132 11 321 13 420 3 99 6 188 8 197 5 26 -16 22 -24 -4 -4 -16 -6
-9 -7 24 -1 26 4 50 9 53 15 9 2 25 -15 18 -8 -3 -15 0 -15 7 0 6 4 9 9 5 5
-3 12 -2 15 3 3 5 -29 37 -70 72 -87 74 -111 100 -77 82 12 -7 25 -17 28 -22
9 -15 22 -12 29 6 10 25 -12 45 -255 241 l-39 31 37 6 c110 16 371 28 507 24
86 -3 156 -1 156 3 0 20 -47 29 -151 29 -103 0 -115 2 -137 22 -21 21 -35 23
-135 25 -62 1 -166 -5 -232 -12z m347 -22 c10 -10 -27 -13 -182 -13 -107 0
-226 -2 -265 -5 -106 -7 -46 6 95 20 156 16 334 15 352 -2z m-384 -50 c-10 -2
-26 -2 -35 0 -10 3 -2 5 17 5 19 0 27 -2 18 -5z m-88 -43 c0 -5 7 -10 16 -10
18 0 188 -171 299 -300 67 -78 70 -84 78 -148 4 -37 10 -173 15 -302 6 -184 5
-238 -5 -248 -7 -7 -13 -22 -13 -32 0 -26 -106 -148 -168 -194 -27 -20 -61
-36 -74 -36 -34 0 -233 -201 -225 -229 3 -13 -7 -31 -33 -56 l-39 -38 -38 30
c-21 17 -62 45 -90 63 -51 30 -57 39 -54 68 1 6 -8 12 -19 12 -12 0 -18 4 -15
10 3 6 -1 7 -9 4 -9 -3 -16 -2 -16 4 0 5 -10 12 -22 16 -25 6 -145 94 -193
141 -17 17 -61 54 -97 84 -57 46 -65 56 -56 71 8 13 8 65 0 191 -13 188 -21
558 -12 557 17 -2 70 29 66 38 -5 13 137 155 240 240 l62 51 138 2 c77 1 157
6 179 10 57 12 85 12 85 1z m-610 -163 c0 -2 -10 -12 -22 -23 l-23 -19 19 23
c18 21 26 27 26 19z m1030 -219 c0 -15 -18 0 -41 35 l-22 32 31 -29 c18 -17
32 -34 32 -38z m-1233 -280 c-3 -7 -5 -2 -5 12 0 14 2 19 5 13 2 -7 2 -19 0
-25z m1239 -375 c-10 -10 -19 5 -10 18 6 11 8 11 12 0 2 -7 1 -15 -2 -18z
m-1151 -133 c27 -30 12 -34 -15 -5 -13 14 -19 25 -13 25 5 0 18 -9 28 -20z
m795 -321 c-5 -52 -10 -119 -10 -149 0 -54 -1 -56 -62 -117 -35 -34 -73 -72
-84 -85 -12 -13 -33 -34 -48 -46 l-26 -24 -67 42 c-38 24 -89 58 -115 77 l-48
35 0 134 c0 123 6 154 26 123 5 -8 9 -8 14 1 9 15 41 -5 128 -78 43 -36 50
-47 41 -58 -16 -20 -3 -30 17 -13 15 12 21 9 49 -24 18 -20 35 -37 39 -37 14
0 4 21 -24 53 -27 31 -28 36 -14 48 9 7 54 59 101 116 48 57 88 102 90 100 2
-2 -1 -46 -7 -98z m-483 14 c-3 -10 -5 -4 -5 12 0 17 2 24 5 18 2 -7 2 -21 0
-30z m476 -553 c-1 -154 1 -280 4 -280 3 0 11 7 18 17 11 14 16 12 49 -24 20
-22 64 -80 98 -129 35 -48 105 -132 157 -187 l94 -98 -54 21 c-30 12 -110 57
-179 100 -69 43 -156 95 -194 115 -54 30 -65 40 -52 47 9 5 14 13 11 19 -3 5
-28 -2 -55 -16 -27 -14 -63 -25 -80 -25 -18 0 -33 -6 -36 -15 -4 -8 -18 -15
-34 -15 -16 0 -31 -6 -33 -12 -4 -10 -8 -10 -15 0 -12 17 -42 2 -153 -72 -41
-28 -118 -71 -170 -95 -52 -24 -102 -48 -111 -52 -24 -12 -68 -11 -68 1 0 6
53 71 118 146 64 74 137 158 161 187 24 29 50 53 57 55 6 2 15 15 19 30 3 15
20 42 38 59 34 36 30 58 -4 27 l-22 -19 7 29 c6 23 4 27 -8 23 -14 -6 -16 17
-16 189 l0 195 29 -20 c16 -12 37 -22 48 -24 10 -1 42 -17 71 -35 42 -26 52
-37 52 -59 0 -42 15 -60 37 -47 10 6 60 63 112 127 52 64 97 117 100 117 3 0
5 -126 4 -280z m-133 157 c0 -2 -13 -16 -30 -32 -23 -22 -30 -25 -30 -12 0 9
12 23 28 31 29 17 32 18 32 13z m-76 -88 c-10 -16 -24 -9 -24 12 0 18 2 19 15
9 8 -7 12 -16 9 -21z m146 -529 c8 -5 11 -10 5 -10 -5 0 -17 5 -25 10 -8 5
-10 10 -5 10 6 0 17 -5 25 -10z m10 -36 c33 -15 59 -28 57 -30 -2 -2 -35 10
-73 26 -38 16 -64 30 -57 30 6 0 39 -12 73 -26z m-76 0 c9 -3 16 -12 16 -20 0
-9 11 -14 31 -14 35 0 151 -60 289 -148 130 -84 134 -86 148 -88 7 -1 28 -12
48 -23 48 -28 60 -26 39 7 l-18 27 21 -19 c21 -18 22 -18 22 -1 0 15 2 15 16
4 13 -11 15 -25 9 -79 -7 -63 -40 -160 -55 -160 -17 0 -159 85 -218 130 -72
56 -121 71 -57 18 79 -66 79 -68 -1 -21 -44 27 -125 71 -180 98 -54 28 -102
55 -106 60 -5 6 -11 5 -17 -5 -6 -9 -23 -13 -46 -12 -27 2 -36 -1 -33 -10 3
-8 -19 -23 -60 -41 -96 -41 -404 -220 -409 -237 -5 -19 -63 -60 -85 -60 -11 0
-17 16 -21 68 -13 133 -14 129 66 212 51 54 97 89 159 124 48 26 85 52 83 57
-5 7 26 23 215 112 53 25 112 33 144 21z m-554 -7 c0 -2 -12 -14 -27 -28 l-28
-24 24 28 c23 25 31 32 31 24z m735 -47 c3 -5 1 -10 -4 -10 -6 0 -11 5 -11 10
0 6 2 10 4 10 3 0 8 -4 11 -10z m534 -82 c-1 -48 -2 -50 -9 -20 -7 30 -3 72 6
72 2 0 4 -24 3 -52z m-278 -57 c31 -17 65 -41 75 -52 17 -19 13 -19 -36 6 -75
38 -127 74 -134 92 -6 14 -4 14 16 1 13 -8 48 -29 79 -47z m256 -58 c-3 -10
-5 -2 -5 17 0 19 2 27 5 18 2 -10 2 -26 0 -35z m-1267 22 c0 -2 -21 -16 -46
-31 -27 -16 -41 -30 -34 -34 8 -5 6 -11 -5 -20 -13 -11 -15 -8 -15 18 0 26 6
32 48 50 57 25 52 23 52 17z m695 -124 c77 -44 141 -78 143 -76 10 9 -16 28
-108 80 -55 31 -100 59 -100 61 0 8 183 -92 262 -142 36 -24 88 -54 115 -69
26 -14 56 -31 67 -38 14 -9 20 -9 23 0 3 8 15 6 43 -5 48 -20 50 -30 10 -39
-21 -4 -67 -40 -143 -114 -61 -60 -115 -109 -119 -109 -10 0 -44 -60 -58 -103
-9 -31 -9 -45 4 -85 10 -29 14 -61 10 -80 -8 -40 2 -82 20 -82 7 0 25 -18 39
-39 31 -47 129 -119 212 -156 l60 -27 -55 -25 c-30 -14 -115 -55 -189 -91 -74
-36 -142 -66 -151 -67 -9 -1 -50 -26 -91 -56 -41 -31 -93 -62 -115 -71 -40
-15 -44 -15 -115 14 -41 16 -110 42 -154 58 -44 15 -115 44 -158 64 -43 20
-84 36 -92 36 -8 0 -30 7 -49 17 l-35 16 41 30 c34 24 45 28 60 18 26 -16 62
4 121 68 50 54 97 140 97 179 0 13 7 31 16 40 41 40 -29 296 -110 400 -52 69
-108 112 -144 112 -13 0 -35 9 -49 19 l-24 20 68 44 c37 25 108 66 157 92 54
29 90 55 94 67 3 11 10 17 18 14 8 -3 40 11 72 32 61 39 127 71 153 71 8 1 78
-35 154 -78z m546 -46 c5 -101 1 -125 -25 -136 -14 -7 -30 -8 -39 -3 -13 8
-12 16 8 64 14 30 24 66 25 80 2 85 26 81 31 -5z m-1 -268 l0 -72 -49 -18
c-52 -18 -111 -74 -111 -105 0 -10 7 -27 15 -38 20 -26 19 -47 -6 -77 -24 -32
-19 -77 17 -145 24 -46 86 -102 112 -102 11 0 13 -8 9 -36 -3 -20 -8 -38 -10
-41 -2 -2 -42 15 -88 37 -45 22 -88 40 -95 40 -19 0 -103 99 -131 153 -23 46
-25 86 -3 72 6 -3 22 21 36 54 15 34 33 61 40 61 8 0 14 6 14 14 0 7 7 20 16
27 10 8 4 -11 -15 -50 -18 -34 -31 -72 -29 -84 2 -16 16 5 46 68 24 49 59 115
78 147 33 54 131 166 147 167 4 1 7 -32 7 -72z m-1246 -16 c52 -12 61 -18 111
-79 85 -102 102 -130 136 -228 l33 -91 -23 -53 c-28 -64 -106 -165 -163 -212
-39 -31 -136 -78 -160 -78 -6 0 -7 30 -3 76 7 74 9 77 53 117 24 23 62 52 82
64 49 29 56 50 30 85 -26 35 -25 40 5 68 29 28 24 44 -10 28 -41 -18 -68 7
-104 96 -12 28 -19 30 -65 11 -18 -8 -19 -4 -12 111 8 124 14 151 27 118 5
-15 23 -24 63 -33z m1086 4 c-46 -47 -67 -61 -34 -23 23 27 67 67 74 68 2 0
-16 -20 -40 -45z m-1093 29 c-3 -3 -12 -4 -19 -1 -8 3 -5 6 6 6 11 1 17 -2 13
-5z m124 -40 c13 -16 12 -16 -18 0 -18 9 -33 21 -33 27 0 13 32 -4 51 -27z
m82 -119 c31 -44 -5 -13 -45 39 -31 40 -31 40 -4 16 15 -14 37 -38 49 -55z
m1015 21 c-26 -19 -22 -27 8 -20 l25 6 -5 -197 c-2 -108 -7 -199 -10 -202 -3
-3 -22 7 -43 22 -52 38 -110 163 -83 180 6 3 17 20 26 36 14 28 14 33 -6 66
-19 33 -20 37 -5 60 18 27 72 63 95 63 12 -1 12 -3 -2 -14z m-281 -38 c-14
-18 -34 -52 -46 -75 -22 -44 -31 -53 -31 -30 0 14 86 137 96 137 3 0 -6 -15
-19 -32z m34 -5 c-5 -10 -17 -27 -26 -38 -16 -19 -16 -19 -4 5 13 27 29 50 36
50 2 0 -1 -8 -6 -17z m-984 -102 c12 -29 33 -58 49 -68 21 -13 28 -24 26 -41
-2 -13 3 -31 11 -40 29 -35 28 -41 -16 -66 -23 -14 -56 -39 -72 -56 -16 -16
-32 -30 -35 -30 -13 0 -21 223 -9 231 8 5 7 14 -5 30 -21 31 -20 65 2 78 26
15 26 15 49 -38z m292 -46 c0 -5 -4 -3 -9 5 -5 8 -9 22 -9 30 0 16 17 -16 18
-35z m697 -237 l29 -33 -32 29 c-31 28 -38 36 -30 36 2 0 16 -15 33 -32z m234
-145 c0 -7 -39 17 -46 28 -3 6 5 3 20 -6 14 -10 26 -19 26 -22z m-1049 -13
c-42 -38 -61 -49 -61 -32 1 10 83 72 95 71 6 0 -10 -18 -34 -39z m1068 -90 c5
0 11 -44 15 -97 4 -54 9 -114 12 -133 l5 -35 -153 -95 c-84 -52 -178 -114
-208 -139 -45 -36 -50 -38 -25 -11 43 47 184 160 223 178 17 9 32 22 32 30 0
37 -164 -90 -367 -283 l-163 -156 -72 63 c-88 76 -152 118 -238 154 -36 16
-108 52 -161 81 -88 50 -97 53 -128 42 -17 -6 -34 -9 -37 -6 -3 3 -1 31 5 63
7 39 8 61 1 68 -7 7 -10 2 -10 -14 0 -15 -3 -21 -10 -14 -14 14 -26 254 -12
254 6 0 9 -7 6 -15 -5 -11 2 -15 26 -15 25 0 41 -9 71 -42 41 -45 63 -49 29
-5 l-21 26 55 -19 c82 -28 214 -99 236 -127 10 -14 23 -22 29 -19 14 9 73 -44
67 -60 -3 -9 2 -14 14 -14 10 0 23 -7 28 -16 8 -14 11 -13 28 8 10 13 38 32
62 42 l42 19 40 -31 c21 -18 44 -32 49 -32 22 0 10 21 -29 48 -21 15 -39 30
-40 33 0 7 120 94 141 102 9 3 21 1 26 -4 9 -9 92 42 218 133 28 20 84 52 125
71 l75 35 3 -34 c2 -19 7 -34 11 -34z m-289 -64 c0 -5 -72 -51 -92 -59 -34
-12 -18 3 35 33 54 31 57 32 57 26z m-537 -144 c70 -26 97 -41 97 -53 0 -9
-10 -19 -21 -22 -15 -4 -49 13 -118 60 -53 36 -87 62 -76 58 11 -3 64 -23 118
-43z m860 -174 c12 -143 8 -301 -7 -329 -15 -28 -22 -209 -8 -209 5 0 13 9 18
21 9 19 13 17 74 -31 36 -29 115 -100 175 -159 61 -59 125 -118 143 -130 17
-12 32 -26 32 -31 0 -11 -71 -24 -140 -25 -30 0 -68 -5 -84 -9 -21 -7 -27 -6
-22 3 11 17 -9 14 -77 -13 -34 -12 -89 -28 -123 -35 -33 -6 -87 -22 -120 -35
-32 -13 -92 -31 -131 -41 -41 -10 -73 -22 -73 -29 0 -7 -36 -25 -80 -40 -139
-49 -133 -82 7 -40 48 14 102 27 118 28 17 0 35 4 40 7 6 4 42 16 80 29 39 12
125 44 193 71 68 27 133 49 145 49 47 0 269 55 285 70 16 16 19 15 49 -8 29
-21 31 -26 18 -39 -19 -18 -19 -25 0 -97 14 -53 14 -62 -4 -124 -11 -37 -22
-91 -26 -119 -5 -44 -3 -53 10 -53 12 0 15 13 16 58 1 31 5 68 9 82 19 58 5
-213 -16 -308 l-5 -23 -42 26 c-23 15 -58 33 -77 41 -19 9 -53 24 -75 34 -22
10 -57 21 -77 24 -21 4 -84 24 -140 45 -167 63 -279 83 -440 79 -108 -2 -138
-6 -138 -17 0 -10 -9 -12 -32 -7 -18 3 -112 9 -208 12 -255 9 -434 -10 -625
-66 -33 -10 -62 -14 -65 -10 -3 5 -66 -9 -140 -30 -74 -21 -153 -42 -174 -47
-22 -4 -41 -14 -44 -22 -3 -9 2 -11 19 -7 13 3 -6 -9 -42 -27 -89 -44 -118
-55 -161 -62 l-38 -7 0 173 c0 254 -4 240 94 277 192 73 220 83 209 71 -49
-49 30 -36 158 27 114 56 350 154 370 154 13 0 82 31 89 40 3 3 33 17 68 29
34 13 62 27 62 32 0 13 -9 11 -68 -11 -29 -11 -72 -22 -95 -25 -23 -2 -109
-29 -192 -60 -82 -30 -215 -76 -294 -101 -79 -25 -195 -67 -257 -94 -62 -26
-116 -45 -119 -42 -3 3 -5 15 -5 28 0 30 253 286 278 282 22 -3 130 89 264
224 53 54 101 98 108 98 8 0 10 18 6 63 -21 233 -18 369 7 348 7 -5 32 -14 56
-21 49 -13 215 -105 274 -152 44 -35 56 -33 27 4 -55 71 86 5 189 -88 53 -47
62 -70 17 -40 -14 9 -30 16 -36 16 -23 0 3 -21 62 -51 33 -17 71 -42 84 -56
26 -29 45 -23 26 7 -10 16 -6 22 36 46 26 15 82 57 124 93 160 136 187 157
254 191 38 19 71 36 73 38 2 1 1 5 -2 9 -4 3 -18 1 -32 -5 -41 -19 -29 -5 35
38 33 22 60 45 60 50 0 8 47 39 61 40 3 0 9 -37 12 -82z m-367 -160 c-38 -35
-79 -69 -90 -77 -12 -8 -44 -36 -72 -61 -27 -26 -66 -55 -85 -65 -32 -16 -30
-13 21 39 30 31 58 56 63 56 8 0 129 90 192 144 58 49 39 25 -29 -36z m401
-60 c-3 -8 -6 -5 -6 6 -1 11 2 17 5 13 3 -3 4 -12 1 -19z m-1428 -248 c-23
-27 -44 -50 -47 -50 -5 0 14 25 57 73 42 46 35 30 -10 -23z m1978 -353 c-6
-43 -16 -77 -22 -75 -12 3 -12 -1 11 103 21 97 29 80 11 -28z m-600 -158 c-20
-12 -150 -49 -155 -45 -5 5 132 54 153 55 19 0 19 0 2 -10z m-1587 -29 c-30
-16 -59 -29 -65 -29 -5 0 15 13 45 29 30 16 60 29 65 29 6 0 -15 -13 -45 -29z
m-440 -47 c0 -5 -5 -15 -10 -23 -8 -12 -10 -11 -10 8 0 12 5 22 10 22 6 0 10
-3 10 -7z m-15 -153 c-4 -23 -9 -39 -11 -37 -3 2 -2 23 2 46 4 23 9 40 11 37
3 -3 2 -23 -2 -46z m1895 -89 c20 -9 12 -10 -40 -5 -36 3 -83 10 -105 15 -31
6 -22 8 40 5 44 -3 91 -9 105 -15z m-571 -5 c-9 -8 -99 -13 -99 -5 0 5 23 9
52 9 28 0 49 -2 47 -4z m186 -13 l60 -8 -55 -5 c-46 -4 -55 -8 -58 -26 -3 -18
-8 -20 -65 -16 -34 3 -78 12 -97 22 l-35 18 72 7 c43 5 70 12 67 17 -4 6 5 8
22 4 16 -3 56 -9 89 -13z m340 -8 c149 -19 175 -24 175 -36 0 -15 -83 -10
-166 11 -44 10 -105 22 -137 26 -32 4 -60 11 -64 17 -4 6 8 8 33 4 21 -3 93
-13 159 -22z m-732 8 c-7 -2 -19 -2 -25 0 -7 3 -2 5 12 5 14 0 19 -2 13 -5z
m-208 -44 c-83 -22 -246 -51 -252 -45 -3 2 22 10 54 16 32 7 60 16 63 21 3 5
37 13 75 18 115 14 136 11 60 -10z m-901 -58 c-4 -31 -12 -83 -19 -116 l-12
-60 -6 77 c-4 43 -4 97 -1 121 5 38 9 44 26 39 17 -4 18 -10 12 -61z m1056 65
c0 -2 -9 -6 -20 -9 -11 -3 -18 -1 -14 4 5 9 34 13 34 5z m-413 -32 c-3 -3 -12
-4 -19 -1 -8 3 -5 6 6 6 11 1 17 -2 13 -5z m250 -10 c-3 -3 -12 -4 -19 -1 -8
3 -5 6 6 6 11 1 17 -2 13 -5z m1442 -40 c58 -19 128 -49 156 -66 63 -40 59
-37 53 -44 -4 -3 -44 13 -90 34 -46 22 -119 55 -163 72 -135 54 -111 56 44 4z
m-1928 -20 c-68 -21 -94 -24 -78 -8 6 7 113 31 137 32 8 0 -19 -11 -59 -24z
m2189 -85 c0 -24 -4 -38 -10 -34 -17 10 -11 75 7 75 2 0 3 -18 3 -41z m-2511
-32 c-2 -1 -12 -9 -21 -16 -15 -12 -18 -11 -18 3 0 10 8 16 22 16 12 0 19 -1
17 -3z m-89 -127 l-20 -45 6 49 c3 27 11 60 17 75 l12 26 3 -31 c2 -16 -6 -50
-18 -74z m417 -102 c-3 -8 -6 -5 -6 6 -1 11 2 17 5 13 3 -3 4 -12 1 -19z m-20
-100 c-3 -7 -5 -2 -5 12 0 14 2 19 5 13 2 -7 2 -19 0 -25z m1566 8 c40 -16 89
-71 123 -138 45 -88 114 -275 113 -305 -1 -19 -6 -9 -15 31 -31 127 -107 260
-208 364 -64 65 -65 70 -13 48z m157 -677 c0 -5 -4 -9 -10 -9 -5 0 -10 7 -10
16 0 8 5 12 10 9 6 -3 10 -10 10 -16z m-1178 -450 c7 -4 2 -12 -12 -19 -20
-11 -25 -10 -37 6 -16 22 -16 25 -2 61 l11 28 14 -35 c8 -19 20 -37 26 -41z
m124 -8 c-12 -19 -98 -51 -133 -50 l-38 1 35 16 c29 14 104 37 133 41 5 0 6
-3 3 -8z m-347 -399 c0 -24 -1 -25 -9 -7 -12 28 -12 47 0 40 6 -3 10 -18 9
-33z m91 -162 c27 -35 34 -50 31 -79 -2 -24 -42 19 -67 74 -13 28 -23 64 -23
80 l1 30 15 -35 c8 -19 28 -50 43 -70z m356 -65 c-11 -8 -29 -15 -40 -14 -15
0 -11 4 14 14 45 17 49 17 26 0z"/>
<path d="M4760 9923 c-14 -9 -48 -34 -77 -55 -28 -22 -57 -38 -65 -37 -35 4
-57 -3 -63 -20 -9 -29 -99 -128 -113 -123 -7 2 -12 -6 -13 -20 l0 -23 -11 23
c-16 33 -30 27 -23 -12 6 -32 4 -36 -52 -79 -32 -25 -65 -52 -72 -61 -28 -33
2 -30 70 7 l69 37 0 -89 c0 -62 4 -91 13 -94 9 -3 7 -9 -5 -24 -21 -23 -23
-37 -5 -30 15 6 22 -39 7 -48 -15 -9 -12 -25 4 -25 8 0 16 -5 18 -11 3 -8 10
-8 26 2 19 12 25 11 49 -9 15 -12 49 -35 75 -50 26 -15 48 -31 48 -36 0 -4
-18 -30 -40 -56 -22 -26 -40 -54 -40 -61 0 -8 -18 -34 -40 -58 -39 -43 -46
-61 -17 -44 8 4 49 50 91 101 75 91 89 102 101 82 10 -17 96 -72 102 -66 3 3
0 14 -7 23 -7 10 10 -6 37 -36 42 -46 51 -52 57 -36 7 19 1 26 -106 140 l-47
50 39 55 c118 166 137 198 105 186 -12 -4 -15 6 -15 57 0 35 4 67 9 73 12 12
-10 84 -25 84 -7 0 -15 7 -18 16 -3 8 -10 13 -16 9 -9 -6 -118 77 -133 101 -5
9 2 18 22 29 40 20 52 40 20 32 -17 -5 -8 7 34 44 31 28 57 55 57 60 0 14 -23
11 -50 -8z m-160 -116 c0 -2 -12 -14 -27 -28 l-26 -24 19 27 c16 23 34 36 34
25z m101 -130 c11 -21 37 -55 59 -77 l39 -39 -5 -101 c-4 -97 -5 -102 -43
-158 -21 -31 -42 -67 -45 -79 -19 -61 -80 -47 -167 37 l-60 59 38 34 c21 19
77 60 126 91 74 49 104 76 82 76 -12 0 -177 -112 -214 -145 -35 -32 -41 -35
-41 -17 0 23 65 85 144 138 51 33 69 54 48 54 -4 0 -49 -31 -100 -69 l-92 -70
0 30 c0 24 10 37 62 74 34 25 74 53 90 63 15 9 28 21 28 26 0 5 10 20 22 33
12 13 19 25 16 29 -3 3 -51 -31 -105 -75 -55 -45 -102 -81 -105 -81 -4 0 -4
28 -1 63 6 71 24 96 108 153 l49 34 24 -23 c13 -12 33 -39 43 -60z m79 -44 c0
-14 -3 -13 -21 3 -11 10 -25 27 -31 38 -9 17 -7 17 21 -3 17 -12 31 -30 31
-38z m-16 -539 c7 -19 2 -18 -19 6 -16 17 -16 20 -3 15 9 -4 19 -13 22 -21z"/>
<path d="M4613 9364 c-76 -52 -99 -71 -92 -78 7 -7 169 103 169 115 0 14 -4
12 -77 -37z"/>
<path d="M4603 9313 c-13 -8 -23 -20 -23 -24 0 -11 56 16 65 31 9 15 -17 11
-42 -7z"/>
<path d="M5058 9398 c-33 -12 -38 -33 -5 -25 l22 6 -22 -16 c-33 -22 -28 -33
12 -33 19 0 35 3 35 8 0 4 16 16 35 26 34 18 46 36 25 36 -6 0 -19 -6 -30 -12
-16 -10 -22 -10 -32 4 -10 12 -19 14 -40 6z"/>
<path d="M5061 9220 c-64 -36 -93 -59 -85 -71 3 -5 14 -4 25 2 15 7 24 7 34
-1 11 -9 22 -7 47 9 119 74 101 128 -21 61z"/>
<path d="M5107 9153 c-21 -15 -36 -32 -33 -40 3 -7 -24 -36 -64 -69 -64 -52
-84 -82 -42 -67 15 6 15 5 3 -10 -26 -32 -1 -31 32 1 18 17 57 44 87 59 37 19
55 34 54 46 -1 9 5 17 14 17 17 0 102 67 102 81 0 14 -33 11 -57 -6 -19 -13
-23 -13 -37 0 -19 19 -15 20 -59 -12z"/>
<path d="M5170 5732 c-122 -82 -180 -132 -154 -132 4 0 50 33 104 73 54 39
106 77 116 84 15 9 15 12 4 12 -8 1 -40 -16 -70 -37z"/>
<path d="M3993 7258 c-21 -29 -92 -109 -158 -178 -139 -146 -200 -218 -192
-227 4 -3 26 16 49 43 23 27 88 96 143 154 127 131 231 260 211 260 -8 0 -32
-24 -53 -52z"/>
<path d="M3770 3035 c-30 -7 -82 -11 -115 -8 -59 5 -61 4 -120 -39 -108 -80
-154 -162 -155 -273 0 -59 10 -99 64 -263 35 -106 71 -201 81 -212 21 -24 48
-26 65 -5 13 16 4 59 -11 50 -19 -12 -3 28 67 172 39 78 142 187 190 199 33 9
53 -10 37 -35 -6 -10 -24 -67 -39 -127 -23 -91 -28 -128 -27 -224 2 -124 28
-255 52 -255 8 0 36 65 70 165 31 91 73 201 93 245 20 44 42 93 47 108 13 33
31 27 31 -9 0 -13 4 -24 10 -24 12 0 9 132 -4 141 -14 11 -45 179 -46 247 0
49 5 70 20 89 22 29 18 43 -11 43 -27 0 -249 -114 -304 -156 l-44 -33 10 27
c16 41 71 142 78 142 3 0 20 11 36 25 l30 24 -25 -1 c-14 0 -50 -6 -80 -13z
m-140 -36 c0 -6 11 -8 28 -5 15 3 49 8 75 12 l48 6 -40 -81 c-63 -124 -49
-155 37 -86 35 27 249 145 264 145 2 0 1 -37 -1 -82 -2 -59 3 -112 19 -190
l23 -108 -64 -137 c-35 -76 -84 -199 -110 -273 l-47 -135 -13 45 c-30 97 -12
379 26 417 7 7 18 35 25 63 10 43 10 54 -4 75 -31 48 -87 23 -188 -83 -61 -64
-80 -94 -116 -174 -23 -53 -42 -103 -42 -112 0 -40 -21 -19 -43 47 -102 293
-101 290 -101 373 -1 74 2 85 34 138 48 80 190 189 190 145z"/>
<path d="M5842 2770 c-57 -29 -95 -57 -131 -96 l-50 -55 -7 28 c-5 17 -1 45 9
72 9 25 14 47 12 50 -8 7 -33 -19 -45 -49 -8 -18 -19 -29 -28 -28 -12 2 -18
-12 -27 -57 -6 -33 -22 -96 -34 -140 -33 -114 -33 -188 0 -245 14 -25 29 -58
33 -75 12 -52 28 -85 42 -85 17 0 17 1 -1 36 -24 47 -19 56 20 33 19 -11 44
-19 55 -17 19 3 22 11 25 65 4 88 55 189 142 283 79 85 137 130 168 130 18 0
23 -8 31 -52 12 -67 40 -82 31 -17 -20 149 -26 172 -54 202 -26 27 -79 57
-102 57 -5 0 -45 -18 -89 -40z m152 -11 c46 -36 73 -109 41 -109 -53 0 -191
-117 -264 -223 -43 -63 -81 -167 -81 -222 0 -25 -4 -45 -8 -45 -5 0 -27 13
-49 29 -37 27 -41 34 -53 104 -11 66 -10 91 5 189 21 139 34 168 35 76 0 -74
15 -91 26 -30 8 44 80 140 132 176 116 79 168 92 216 55z m-435 -479 c1 -13 0
-13 -9 0 -5 8 -9 26 -9 40 l1 25 8 -25 c4 -14 8 -32 9 -40z"/>
<path d="M4905 2611 c-17 -28 -53 -151 -45 -156 9 -6 65 153 57 161 -3 3 -8 1
-12 -5z"/>
<path d="M4884 2458 c-24 -46 -102 -126 -153 -156 -49 -28 -41 -43 9 -17 48
25 110 85 147 142 36 56 38 63 23 63 -5 0 -17 -14 -26 -32z"/>
</g>
</svg>
