<?xml version="1.0" standalone="no"?>
<!DOCTYPE svg PUBLIC "-//W3C//DTD SVG 20010904//EN"
 "http://www.w3.org/TR/2001/REC-SVG-20010904/DTD/svg10.dtd">
<svg version="1.0" xmlns="http://www.w3.org/2000/svg"
 width="1120.000000pt" height="1196.000000pt" viewBox="0 0 1120.000000 1196.000000"
 preserveAspectRatio="xMidYMid meet">

<g transform="translate(0.000000,1196.000000) scale(0.100000,-0.100000)"
fill="#000000" stroke="none">
<path d="M3120 11430 c-174 -31 -260 -57 -365 -110 -55 -27 -118 -57 -140 -65
-27 -11 -36 -18 -27 -24 9 -5 -11 -20 -60 -46 -123 -65 -248 -205 -248 -279 0
-53 -53 -132 -146 -222 -122 -119 -124 -144 -13 -144 61 0 68 -12 40 -76 -33
-75 -24 -83 37 -34 84 66 232 104 390 98 103 -3 157 -22 212 -73 32 -29 110
-68 175 -86 29 -8 95 -14 160 -14 108 0 112 1 204 43 84 38 95 41 110 28 28
-25 88 -46 133 -46 24 0 88 14 143 31 107 34 111 36 103 45 -3 3 -54 -9 -113
-26 -86 -26 -117 -31 -157 -26 -48 7 -98 30 -98 46 0 7 171 100 184 100 3 0 6
-7 6 -15 0 -11 13 -15 53 -15 28 0 93 -7 142 -15 140 -23 177 -11 314 104 77
65 89 71 129 71 50 0 202 39 202 52 0 10 -17 10 -58 -1 -17 -5 -32 -8 -32 -6
0 2 14 26 31 53 27 43 30 56 27 113 -3 59 -5 65 -35 84 -21 13 -32 28 -33 44
0 22 -3 23 -55 19 l-56 -5 30 31 c27 29 51 73 51 97 0 5 -11 21 -25 34 -22 23
-32 25 -117 25 -85 0 -239 -19 -295 -36 -18 -5 -23 -2 -23 11 0 30 -129 153
-194 185 -146 72 -361 90 -586 50z m436 -20 c119 -30 191 -70 262 -144 63 -66
71 -82 50 -115 -14 -23 -4 -53 17 -45 8 3 15 12 15 20 0 25 46 44 146 59 115
17 237 19 265 5 32 -18 24 -64 -18 -111 -38 -42 -41 -43 -110 -23 -14 4 -23 2
-23 -5 0 -6 15 -14 33 -19 17 -4 32 -13 32 -19 0 -19 11 -24 36 -15 17 7 40 4
78 -10 92 -31 101 -40 101 -102 0 -45 -6 -62 -40 -114 -42 -65 -66 -79 -120
-68 -31 6 -69 -18 -170 -107 -78 -68 -112 -81 -205 -73 -252 20 -235 17 -224
38 6 11 8 22 5 25 -3 3 -62 -23 -131 -57 -124 -63 -125 -63 -146 -44 -29 26
-98 23 -229 -12 -141 -37 -275 -39 -337 -6 -29 15 -43 29 -43 42 0 11 -4 20
-10 20 -5 0 -10 -7 -10 -15 0 -11 -11 -9 -52 10 -103 48 -346 28 -481 -40 -53
-26 -67 -30 -62 -17 29 68 13 92 -61 92 -29 0 -56 5 -59 10 -4 6 36 52 88 103
100 98 130 144 148 229 23 112 111 202 283 289 92 46 127 59 148 55 35 -7 37
9 2 21 -24 8 -20 12 62 51 67 31 125 49 234 71 185 38 183 38 326 40 92 1 140
-4 200 -19z m814 -399 c0 -5 -9 -7 -20 -4 -11 3 -20 7 -20 9 0 2 9 4 20 4 11
0 20 -4 20 -9z m-972 -545 c21 -20 -145 -88 -229 -94 -75 -5 -187 11 -242 36
l-38 17 98 1 c70 1 127 9 198 27 149 38 184 40 213 13z"/>
<path d="M2885 11253 c-42 -9 -125 -46 -125 -55 0 -6 8 -7 18 -3 82 35 140 45
253 45 140 0 147 -3 285 -105 106 -79 189 -127 270 -156 82 -29 162 -22 282
25 52 20 111 36 133 36 21 0 39 5 39 10 0 22 -91 9 -181 -27 -79 -31 -106 -37
-169 -37 -65 0 -85 4 -150 35 -86 41 -134 71 -243 152 -110 83 -125 87 -269
86 -68 -1 -132 -3 -143 -6z"/>
<path d="M5855 11156 c-133 -34 -267 -140 -315 -250 -21 -46 -46 -60 -155 -86
-122 -28 -245 -123 -245 -189 0 -37 -10 -47 -50 -55 -26 -4 -52 -23 -96 -69
-191 -196 -288 -393 -239 -487 16 -31 16 -34 -3 -59 -33 -44 -48 -97 -33 -115
9 -11 11 -33 7 -73 -8 -67 3 -117 27 -121 8 -2 33 15 54 37 49 53 97 57 58 5
-38 -50 -10 -43 71 19 33 24 80 56 107 71 l47 28 0 -24 c0 -44 48 -70 94 -52
29 11 16 25 -17 19 -38 -7 -60 11 -55 46 2 16 19 27 68 46 36 13 69 28 74 33
15 15 -16 12 -57 -5 -20 -8 -46 -15 -57 -15 -12 0 -26 -5 -33 -10 -7 -6 -46
-31 -87 -55 -41 -25 -86 -52 -100 -61 l-25 -16 25 20 c31 25 20 40 -17 23 -32
-14 -32 -14 65 63 116 93 89 86 -50 -14 -70 -50 -85 -57 -97 -46 -20 20 -5 53
37 81 20 13 53 39 73 58 21 19 53 44 74 57 66 41 67 100 2 100 -24 0 -41 -11
-78 -50 -40 -43 -52 -50 -73 -44 -14 3 -26 12 -26 19 0 17 31 28 54 19 12 -5
15 -2 10 10 -3 9 -15 16 -26 16 -19 0 -19 1 3 21 19 17 14 16 -24 -6 -70 -38
-78 -26 -23 33 58 62 48 68 -18 11 -44 -39 -46 -40 -46 -17 0 14 7 48 15 76
14 46 18 51 31 38 17 -17 53 -30 61 -22 3 3 -6 10 -21 15 -14 6 -26 17 -26 26
0 8 25 42 55 75 58 63 74 90 28 49 -16 -14 -37 -32 -47 -40 -18 -12 -19 -12
-11 1 4 8 24 35 43 58 26 33 37 40 43 30 6 -9 9 -5 9 14 0 39 55 91 123 116
71 27 83 27 90 3 4 -15 -8 -27 -53 -55 -70 -43 -181 -148 -203 -193 -15 -29
-15 -33 -1 -47 8 -9 32 -16 52 -16 28 0 33 3 22 10 -8 5 -25 10 -37 10 -40 0
-26 35 40 102 64 65 178 148 203 148 7 0 16 -5 19 -10 11 -18 63 -40 79 -34
21 8 20 38 0 55 -9 7 -34 15 -57 18 -33 5 -43 11 -45 27 -2 13 2 22 10 21 25
-1 98 16 104 24 3 5 9 7 14 4 4 -3 7 3 6 12 -1 13 21 25 93 49 113 37 127 54
46 54 -64 0 -95 13 -95 39 0 31 48 63 112 75 36 7 37 6 44 -30 7 -38 24 -29
24 14 0 18 6 22 32 22 17 0 40 7 50 17 17 15 18 14 18 -23 0 -49 9 -84 22 -84
5 0 6 19 2 45 -9 66 0 95 34 95 21 0 24 2 12 10 -13 9 -11 14 13 33 92 76 256
133 413 144 84 5 95 4 147 -21 44 -20 71 -26 127 -26 l72 0 -26 -31 c-26 -30
-36 -89 -16 -89 6 0 10 9 10 20 0 51 54 103 119 116 33 7 34 6 27 -19 -4 -16
-2 -27 4 -27 6 0 13 13 16 29 5 25 11 29 51 35 25 3 145 6 266 6 l220 0 -19
-22 c-19 -21 -19 -21 1 -16 11 3 28 9 38 13 24 10 22 -12 -8 -71 -29 -57 -28
-54 -15 -54 14 0 60 98 60 126 0 12 10 25 23 31 30 14 123 -28 139 -63 11 -25
28 -32 28 -13 0 25 -24 51 -73 76 l-52 26 43 19 c43 19 102 17 102 -3 0 -5 9
-9 20 -9 11 0 20 4 20 9 0 14 81 -8 128 -35 46 -27 49 -43 14 -59 -24 -11 -29
-25 -9 -25 22 0 57 30 57 50 0 22 -39 55 -86 72 -19 6 -34 18 -34 24 0 9 -53
14 -207 18 -115 3 -253 9 -308 12 -110 6 -251 -8 -349 -35 -51 -14 -64 -15
-75 -4 -6 7 -29 13 -51 13 -21 0 -51 5 -67 12 -15 6 -111 15 -213 20 -102 4
-221 10 -265 12 -46 3 -101 -1 -130 -8z m245 -33 l45 -20 -40 -7 c-22 -4 -69
-16 -105 -28 -84 -27 -390 -157 -411 -174 -29 -26 -41 -16 -23 19 30 58 75
105 143 150 63 42 91 55 171 77 56 15 169 7 220 -17z m185 -4 c-77 -6 -123 -5
-129 1 -7 7 33 10 120 9 l129 -2 -120 -8z m718 -6 c-13 -2 -23 -9 -23 -14 0
-7 18 -7 48 -3 90 14 124 8 141 -24 8 -16 -5 -16 -202 -9 -140 5 -234 4 -276
-3 -35 -6 -65 -9 -67 -7 -7 7 94 48 139 57 23 4 92 8 152 8 61 -1 100 -3 88
-5z m276 -7 c-22 -19 -47 -23 -69 -10 -24 13 -23 13 24 14 27 0 47 -2 45 -4z
m-775 -19 c16 -11 14 -15 -24 -40 -56 -36 -127 -37 -202 -2 -29 14 -65 25 -80
25 -50 0 -29 19 25 23 135 9 264 7 281 -6z m61 3 c3 -5 -1 -10 -9 -10 -8 0
-18 5 -21 10 -3 6 1 10 9 10 8 0 18 -4 21 -10z m-418 -16 c-3 -3 -12 -4 -19
-1 -8 3 -5 6 6 6 11 1 17 -2 13 -5z m373 -39 c-14 -8 -29 -14 -35 -14 -5 0 1
6 15 14 14 8 30 14 35 14 6 0 -1 -6 -15 -14z m-845 -135 c-18 -20 -45 -27 -45
-12 0 9 37 30 54 31 5 1 1 -8 -9 -19z m-50 -40 c-3 -5 -23 -10 -43 -9 -33 1
-34 2 -12 9 36 12 62 12 55 0z m-288 -110 c-16 -42 -1 -62 54 -76 l44 -11 -35
-8 c-19 -4 -58 -19 -87 -33 -44 -22 -56 -24 -77 -14 -38 17 -34 53 12 103 29
33 71 62 99 69 1 0 -4 -14 -10 -30z m-132 -60 c-20 -39 -19 -67 5 -87 24 -21
10 -43 -26 -43 -22 0 -24 4 -24 43 0 29 8 54 25 80 31 44 42 49 20 7z m-75
-135 c0 -6 -30 -18 -70 -29 l-25 -7 24 20 c21 19 71 29 71 16z m126 -90 c19
-14 19 -14 -2 -15 -12 0 -27 7 -34 15 -17 20 9 21 36 0z m-226 -438 c0 -19
-30 -45 -69 -58 -45 -16 -47 -7 -8 35 34 36 77 48 77 23z m-272 -117 c-11 -28
-23 -49 -25 -47 -4 5 34 97 41 97 3 0 -5 -23 -16 -50z m81 39 c17 -6 31 -13
31 -15 0 -3 -12 -22 -26 -44 -21 -31 -33 -40 -55 -40 -16 0 -29 3 -29 6 0 7
42 104 45 104 1 0 16 -5 34 -11z m91 -24 c-7 -9 -27 -26 -44 -38 l-31 -22 16
25 c8 14 19 31 23 38 4 6 16 12 28 12 17 0 18 -2 8 -15z m-137 -125 c-4 -21 0
-36 11 -48 15 -17 13 -21 -19 -52 l-35 -34 0 82 c0 81 0 82 25 82 22 0 24 -3
18 -30z"/>
<path d="M7768 10384 c-13 -14 -22 -15 -48 -5 -35 12 -50 8 -50 -14 0 -8 -10
-35 -22 -60 -12 -24 -19 -48 -15 -51 3 -4 23 6 43 21 33 25 38 26 46 11 9 -15
38 -23 38 -9 0 3 -7 14 -16 24 -19 21 -11 39 17 39 12 0 19 7 19 20 0 11 7 20
15 20 8 0 15 5 15 10 0 15 -24 12 -42 -6z m-83 -72 c-15 -16 -16 -15 -4 12 7
15 15 23 17 16 3 -7 -3 -19 -13 -28z"/>
<path d="M6947 10263 c-18 -27 -48 -69 -66 -95 -24 -36 -38 -48 -56 -48 -14 0
-25 -4 -25 -10 0 -5 7 -10 15 -10 19 0 19 -14 0 -30 -12 -10 -19 -10 -27 -2
-20 20 -29 13 -17 -10 10 -19 8 -25 -15 -45 -15 -13 -34 -23 -42 -23 -8 0 -14
-4 -14 -10 0 -16 20 -12 64 13 l41 23 49 -33 48 -33 -35 -15 c-41 -17 -124 -7
-119 14 2 10 -4 11 -20 6 -13 -4 -47 -10 -75 -12 -52 -5 -69 -17 -35 -26 15
-4 15 -5 -2 -6 -11 -1 -16 -6 -13 -15 10 -24 -33 -27 -142 -9 -97 16 -105 20
-123 48 -10 16 -18 35 -18 41 0 6 26 14 60 18 80 9 77 24 -5 23 l-66 -2 -34
79 c-19 44 -35 81 -35 83 0 9 48 -22 77 -50 18 -17 36 -27 40 -23 5 4 -11 25
-35 47 -40 35 -41 37 -15 30 53 -15 111 -50 118 -71 7 -21 25 -28 25 -9 0 24
-23 50 -63 71 -53 27 -198 60 -211 47 -6 -5 -29 -9 -52 -9 -74 0 -60 -19 16
-22 l71 -3 35 -79 c19 -43 33 -85 30 -93 -3 -7 -20 -13 -38 -14 -43 0 -176
-24 -185 -33 -15 -15 10 -14 117 5 63 10 116 15 118 10 9 -26 77 -130 105
-158 33 -35 71 -42 108 -22 11 6 79 24 150 40 72 16 140 34 152 41 13 7 74 12
152 12 121 1 134 3 186 28 79 39 149 124 118 144 -5 3 -9 0 -9 -6 0 -6 -18
-30 -40 -54 -48 -52 -106 -84 -123 -67 -6 6 -32 11 -59 11 -55 0 -140 30 -182
64 l-29 24 22 29 c27 33 48 41 119 42 46 1 57 -3 89 -32 l36 -34 -42 -16 c-22
-9 -41 -21 -41 -27 0 -5 2 -10 5 -10 25 0 316 181 323 201 7 18 -11 8 -119
-62 l-109 -71 -40 36 c-22 20 -45 36 -51 36 -7 0 6 12 27 26 48 32 49 33 42
39 -3 3 -35 -11 -72 -30 -60 -31 -116 -45 -116 -29 0 3 25 42 55 86 30 44 55
81 55 84 0 16 -24 -3 -53 -43z m78 -344 c13 -5 -9 -8 -60 -8 -74 0 -78 1 -60
15 20 15 74 12 120 -7z m52 5 c-3 -3 -12 -4 -19 -1 -8 3 -5 6 6 6 11 1 17 -2
13 -5z m-334 -11 l39 -6 -39 -13 c-23 -8 -39 -10 -41 -4 -2 6 -16 10 -30 11
-24 0 -25 1 -7 9 25 11 32 11 78 3z m-283 -47 l64 -12 -22 -22 c-30 -30 -63
-28 -95 6 -27 28 -34 43 -19 41 4 0 36 -6 72 -13z m217 8 c-3 -3 -12 -4 -19
-1 -8 3 -5 6 6 6 11 1 17 -2 13 -5z"/>
<path d="M6121 10147 c-9 -11 -2 -14 34 -14 36 0 43 3 34 14 -6 7 -22 13 -34
13 -12 0 -28 -6 -34 -13z"/>
<path d="M4097 9979 c-24 -31 -47 -33 -47 -3 0 8 -8 14 -19 14 -14 0 -20 -10
-25 -41 -4 -23 -13 -54 -22 -71 -24 -46 -12 -54 28 -19 42 36 48 38 48 11 0
-11 5 -20 10 -20 6 0 10 16 8 37 l-3 37 73 12 c90 16 112 23 112 36 0 5 -7 8
-15 4 -8 -3 -38 -8 -66 -12 -50 -7 -51 -6 -40 14 14 27 14 32 -3 32 -8 0 -26
-14 -39 -31z"/>
<path d="M6925 9995 c17 -8 39 -14 50 -14 15 1 13 4 -10 14 -16 8 -39 14 -50
14 -15 -1 -13 -4 10 -14z"/>
<path d="M5845 9984 c-86 -10 -176 -28 -181 -36 -3 -4 -9 -6 -14 -3 -5 3 -11
1 -15 -5 -3 -5 -1 -10 6 -10 6 0 1 -9 -12 -20 -29 -23 -29 -23 106 -20 96 2
170 11 208 25 12 5 17 2 17 -10 0 -10 5 -15 14 -12 13 5 171 -154 309 -310
l63 -73 12 -147 c14 -172 20 -463 10 -463 -4 0 -10 -15 -13 -33 -13 -66 -199
-244 -251 -239 -28 2 -227 -198 -222 -225 1 -10 -13 -37 -32 -60 l-34 -41 -41
33 c-22 18 -64 47 -92 65 -51 30 -57 39 -54 68 1 6 -5 12 -14 12 -8 0 -15 4
-15 10 0 5 -7 7 -15 4 -8 -4 -15 -2 -15 4 0 5 -10 12 -22 16 -25 6 -144 93
-194 141 -17 17 -58 53 -92 80 -53 43 -61 54 -56 75 9 38 10 35 -4 205 -13
162 -21 544 -12 543 17 -2 69 28 67 38 -2 13 107 124 231 233 70 62 86 84 44
62 -16 -8 -24 -7 -36 4 -8 8 -28 15 -44 15 -17 0 -32 4 -34 9 -1 5 -52 12
-113 16 -136 9 -136 -10 1 -26 49 -5 104 -14 123 -19 19 -5 38 -7 43 -4 4 3 8
1 8 -5 0 -6 -10 -15 -21 -22 -15 -8 -19 -8 -15 0 19 31 -20 2 -109 -82 -55
-51 -145 -128 -200 -171 -100 -79 -215 -185 -215 -198 0 -19 26 -4 61 35 23
25 38 36 39 27 0 -17 -89 -107 -165 -166 -106 -82 -193 -159 -184 -162 10 -4
16 0 180 134 68 56 149 127 179 159 30 31 67 66 83 76 l27 20 -1 -123 -1 -123
-12 72 c-12 73 -20 92 -33 79 -9 -9 15 -284 33 -368 11 -56 11 -81 0 -155 -7
-48 -11 -94 -8 -100 8 -25 22 -1 24 40 1 40 1 40 5 7 2 -19 8 -44 13 -55 4
-11 11 -32 14 -46 3 -16 38 -55 88 -100 46 -41 116 -105 157 -144 44 -41 76
-64 79 -57 2 7 -3 24 -12 37 -23 35 -20 42 8 16 25 -24 31 -58 40 -261 4 -82
4 -90 -6 -57 -13 42 -22 46 -38 16 -17 -31 -8 -62 20 -69 33 -8 38 -29 47
-205 l8 -150 3 153 3 153 28 -20 c16 -12 38 -22 49 -24 11 -2 43 -17 71 -35
39 -24 51 -37 51 -56 0 -33 10 -56 24 -56 15 0 65 53 152 162 38 49 73 88 78
88 5 0 6 -39 2 -92 -3 -50 -6 -156 -6 -235 l0 -143 -30 0 c-40 0 -38 -18 3
-22 28 -3 33 -7 37 -38 5 -32 6 -33 17 -15 11 19 12 19 39 -10 15 -16 50 -61
77 -100 73 -102 121 -160 206 -248 l76 -78 -55 21 c-30 12 -119 61 -197 110
-78 49 -161 99 -185 111 -54 27 -55 28 -39 38 7 5 10 14 7 20 -5 7 -23 3 -56
-14 -27 -14 -63 -25 -80 -25 -18 0 -33 -6 -36 -15 -4 -8 -16 -15 -28 -15 -12
0 -28 -6 -34 -12 -10 -10 -15 -10 -21 1 -10 16 -24 10 -130 -62 -112 -75 -322
-177 -350 -170 -16 4 -21 11 -18 24 4 15 2 16 -13 6 -10 -6 -16 -15 -14 -19 3
-5 -3 -24 -15 -43 -19 -33 -19 -38 -6 -162 20 -184 38 -1065 22 -1075 -9 -6
-8 -10 2 -17 22 -14 20 -315 -4 -511 -10 -85 -19 -174 -20 -198 -1 -36 -9 -53
-50 -105 -85 -105 -156 -176 -275 -277 -63 -53 -150 -135 -193 -183 -57 -63
-82 -84 -96 -80 -13 3 -21 -1 -23 -14 -4 -15 -7 -14 -18 10 -22 45 -30 31 -30
-50 0 -43 -7 -136 -15 -208 -18 -154 -19 -251 -5 -328 10 -52 9 -60 -18 -114
-45 -88 -68 -171 -54 -185 9 -9 16 -8 29 5 16 16 16 17 0 17 -21 0 -21 -5 2
62 22 65 50 119 50 98 0 -29 -37 -197 -68 -300 -17 -58 -44 -170 -61 -250 -16
-80 -34 -161 -40 -180 -12 -43 -13 -60 -1 -60 9 0 11 6 65 260 37 177 60 252
52 170 -23 -208 -27 -283 -19 -291 6 -6 16 54 26 153 29 278 48 370 102 483
27 55 49 104 49 108 2 16 40 37 57 32 10 -4 18 1 21 13 4 13 44 30 154 66 82
27 155 51 162 54 9 3 6 -10 -9 -39 -13 -24 -24 -53 -25 -64 -1 -11 -9 -45 -17
-75 -24 -91 -36 -178 -43 -306 -6 -118 0 -180 16 -154 4 6 10 -69 13 -167 3
-109 12 -203 21 -243 21 -86 65 -190 81 -190 6 0 20 30 30 68 10 37 29 90 41
117 42 93 236 360 305 418 21 19 39 39 39 45 0 6 9 16 20 22 16 9 18 8 14 -5
-8 -20 10 -19 27 1 19 23 89 57 89 43 0 -8 4 -8 15 1 20 17 69 4 100 -28 15
-15 54 -72 87 -127 l60 -100 -5 -130 c-8 -211 -68 -401 -167 -536 -37 -48 -61
-71 -90 -83 -59 -23 -64 -20 -34 19 35 46 23 45 -20 -2 -29 -32 -36 -35 -50
-24 -18 15 -21 69 -6 115 5 17 17 56 26 87 10 36 38 86 78 140 75 102 99 159
66 159 -4 0 -34 -37 -68 -83 -33 -45 -84 -104 -113 -132 l-52 -50 36 51 c20
29 37 54 37 58 0 39 -110 -103 -176 -228 -50 -94 -100 -282 -110 -411 -6 -75
-4 -88 31 -190 52 -156 108 -237 151 -221 8 3 14 18 14 32 l0 27 23 -21 c38
-36 135 -74 201 -79 54 -4 67 -1 114 27 28 17 52 35 52 40 0 15 -11 12 -55
-15 -55 -34 -149 -35 -221 -1 -74 35 -73 45 4 29 168 -35 182 -31 284 68 34
33 78 69 97 80 84 45 101 58 158 119 199 216 255 294 239 336 -3 8 10 50 30
94 85 193 95 377 29 538 -60 149 -122 180 -199 99 -52 -53 -66 -97 -73 -222
l-6 -100 -15 50 c-8 29 -16 117 -19 211 -6 174 9 290 46 367 15 30 16 37 4 37
-20 0 -42 -58 -65 -170 -29 -140 -21 -320 22 -493 32 -125 57 -177 86 -177 19
0 18 9 -7 83 -18 53 -20 81 -17 188 3 120 4 128 33 175 67 107 115 98 178 -34
39 -83 41 -92 45 -199 3 -80 -1 -134 -12 -186 -18 -80 -118 -320 -163 -389
-70 -109 -162 -208 -267 -288 -31 -24 -20 -6 122 199 45 64 107 187 117 231 3
14 1 32 -5 40 -8 13 -12 13 -27 -3 -15 -14 -16 -19 -4 -26 15 -10 5 -50 -29
-111 -18 -32 -19 -32 -14 -8 9 41 -14 35 -32 -7 -7 -19 -14 -43 -14 -54 0 -22
-139 -235 -188 -287 -21 -24 -47 -36 -100 -50 -76 -19 -99 -41 -33 -30 22 3
48 9 58 13 13 4 10 -3 -11 -25 -17 -18 -33 -28 -36 -22 -4 7 -18 4 -39 -6 -68
-34 -103 -31 -178 16 -37 24 -84 56 -104 71 -20 16 -42 29 -49 29 -21 0 6 -26
84 -82 70 -49 70 -50 33 -43 -90 15 -140 63 -176 166 -34 96 -24 387 15 446
18 28 18 33 0 33 -21 0 -2 54 38 106 44 58 136 157 141 152 9 -8 -48 -168 -60
-168 -15 0 -45 -70 -45 -106 0 -13 7 -40 14 -59 14 -33 18 -35 61 -35 25 0 65
9 91 21 90 43 226 255 274 431 45 166 62 341 38 409 -12 36 -110 202 -136 232
-14 15 -13 17 1 17 10 0 17 4 17 8 0 8 -74 25 -157 38 -48 7 -53 6 -52 -2 0
-3 -28 -22 -62 -42 -82 -48 -239 -199 -239 -229 0 -12 -33 -71 -74 -130 -85
-125 -111 -172 -127 -237 -6 -25 -15 -46 -19 -46 -13 0 -38 74 -56 166 -13 73
-15 126 -11 294 7 244 35 442 83 595 13 44 18 50 42 50 15 0 32 -3 38 -7 14
-9 24 0 24 24 0 24 -26 34 -45 18 -20 -16 -19 0 1 28 11 16 19 20 28 13 8 -7
36 -4 86 10 41 11 118 21 170 23 57 3 125 13 170 26 131 39 182 47 220 37 l35
-10 -43 -9 c-59 -13 -43 -24 28 -20 51 3 60 1 72 -17 16 -27 31 -27 23 -1 -8
26 -8 26 201 -5 202 -30 343 -42 329 -28 -5 6 -62 15 -125 22 -107 11 -196 24
-262 37 -16 3 -28 12 -28 20 0 29 237 12 468 -33 l82 -16 0 -31 c0 -18 12 -57
26 -87 15 -30 46 -97 68 -149 23 -53 58 -120 78 -150 76 -115 162 -323 200
-480 26 -112 29 -137 24 -240 -8 -204 -80 -350 -172 -350 -68 0 -139 103 -169
245 -17 83 -19 159 -2 87 8 -35 14 -42 31 -40 23 3 63 58 73 97 3 14 17 50 30
79 33 70 27 107 -43 281 -55 140 -107 228 -155 262 -43 30 -111 39 -180 23
-80 -19 -115 -37 -172 -93 -55 -52 -77 -88 -77 -126 0 -33 16 -25 23 13 13 63
133 163 221 183 l54 12 56 -55 c139 -135 236 -327 236 -465 0 -33 -5 -45 -22
-54 -19 -10 -20 -13 -6 -23 14 -10 14 -15 1 -39 -12 -23 -17 -26 -29 -16 -8 6
-14 20 -14 31 0 10 -7 21 -15 24 -8 3 -20 24 -25 45 -6 21 -16 39 -21 39 -15
0 -2 -216 17 -295 20 -83 72 -182 111 -212 44 -34 99 -40 140 -14 73 46 129
190 139 354 10 163 -31 325 -149 592 -12 27 -44 85 -71 130 -27 44 -69 125
-93 180 -80 178 -78 172 -63 201 16 28 25 28 123 -8 62 -22 193 -130 290 -238
31 -34 51 -50 57 -44 12 12 -12 38 -160 179 l-105 100 58 -33 c134 -76 257
-182 257 -223 0 -40 20 -17 21 24 1 41 1 41 11 13 8 -21 13 -25 19 -15 6 11
13 8 33 -11 42 -38 30 -2 -14 46 l-39 43 19 57 c24 70 25 110 3 122 -15 9 -15
23 -4 173 25 320 29 394 21 399 -4 3 3 75 16 160 38 249 30 262 -30 55 -21
-71 -45 -151 -53 -177 l-15 -48 -42 32 c-22 18 -104 84 -181 148 -77 64 -159
131 -182 149 -24 18 -52 46 -63 62 -23 32 -19 54 8 40 9 -4 23 -6 31 -3 9 3 5
11 -15 27 -23 18 -26 25 -16 37 6 8 9 18 5 21 -3 4 -8 39 -10 79 -2 40 -5 114
-8 163 -2 50 -7 121 -11 159 -6 58 -4 70 10 78 19 11 21 28 3 28 -11 0 -16 31
-21 128 -3 70 -9 138 -13 151 -5 20 -3 23 10 18 22 -8 22 1 0 25 -26 29 -1 21
40 -13 27 -22 37 -26 37 -15 0 8 -13 25 -29 37 -18 13 -27 27 -24 36 3 8 -3
20 -14 28 -19 13 -20 29 -22 421 -2 339 0 409 12 423 11 12 16 66 21 224 7
212 4 231 -29 185 -16 -22 -17 -17 -12 85 4 78 2 107 -6 104 -20 -6 -28 -86
-25 -240 2 -105 0 -147 -8 -147 -11 0 -188 176 -252 250 -51 60 -142 191 -142
206 0 7 -16 26 -35 41 -41 33 -44 43 -10 43 14 0 25 5 25 10 0 6 -19 10 -41
10 l-41 0 5 158 c3 86 8 167 12 180 7 22 8 22 27 5 19 -17 20 -17 13 18 -6 35
-6 36 37 52 76 29 140 40 149 25 6 -9 12 -8 26 4 22 20 143 36 143 20 0 -19
-43 -40 -97 -47 -62 -8 -71 -25 -13 -25 75 0 156 54 129 86 -13 16 3 21 101
34 98 12 560 13 560 1 0 -6 -19 -21 -42 -35 -43 -26 -78 -22 -78 9 0 22 -43
28 -131 21 -43 -3 -115 -9 -159 -12 -44 -4 -80 -11 -80 -15 0 -5 10 -9 23 -10
14 -1 8 -4 -16 -10 -54 -13 -137 -50 -137 -61 0 -6 8 -7 18 -3 96 42 130 49
282 52 l155 4 -25 -20 c-69 -56 -220 -112 -220 -82 0 20 -148 12 -360 -19
-232 -33 -290 -47 -290 -66 0 -10 16 -14 59 -14 63 0 97 19 39 21 -38 2 62 20
266 49 77 11 167 19 200 19 l61 -2 -65 -9 c-36 -5 -83 -16 -105 -24 -23 -8
-52 -14 -65 -14 -37 0 -180 -33 -180 -42 0 -10 14 -10 81 1 117 20 129 20 129
5 0 -11 21 -14 110 -14 67 0 110 -4 110 -10 0 -5 5 -10 10 -10 6 0 10 9 10 21
0 11 4 18 9 15 4 -3 22 -1 40 4 17 5 31 5 31 0 0 -10 -25 -20 -51 -20 -10 0
-19 -5 -19 -11 0 -8 15 -9 45 -5 53 8 57 -1 15 -33 -26 -19 -39 -21 -83 -16
-29 4 -63 2 -77 -4 -22 -8 -18 -10 28 -10 29 -1 51 -5 48 -9 -2 -4 -47 -21
-98 -37 -103 -32 -137 -51 -73 -42 26 4 35 3 25 -3 -31 -19 0 -18 111 4 123
25 179 47 179 71 0 7 -11 15 -24 17 l-25 3 26 30 26 30 135 3 c87 2 138 0 145
-7 6 -6 40 -11 77 -11 l65 0 -24 -19 c-14 -10 -21 -23 -17 -30 8 -12 -168
-101 -199 -101 -8 0 -15 -6 -15 -14 0 -8 -29 -19 -82 -31 -67 -14 -108 -17
-215 -11 -135 6 -184 -6 -72 -18 168 -17 280 -3 476 59 85 27 124 52 62 41
-29 -6 -25 -2 24 24 31 17 100 46 152 65 53 19 103 39 113 44 32 18 -14 25
-50 7 -28 -15 -33 -15 -40 -1 -6 11 -25 15 -63 15 -48 0 -55 2 -55 20 0 18 -7
20 -87 20 -49 0 -131 -7 -183 -15 -120 -18 -150 -19 -150 -1 0 13 78 26 161
26 41 0 66 19 27 21 -19 1 -16 4 15 16 20 9 37 20 37 24 0 12 -12 11 -51 -5
-60 -24 -198 -48 -217 -37 -13 8 -6 10 31 11 28 0 47 5 47 11 0 7 10 9 25 7
21 -4 24 -2 20 12 -4 14 2 19 30 24 20 4 41 16 48 27 6 12 36 36 65 55 57 37
73 61 51 75 -8 6 -136 8 -314 6 -262 -4 -311 -7 -385 -26 -47 -11 -130 -30
-185 -42 -125 -26 -195 -55 -195 -80 0 -11 -5 -19 -11 -19 -7 0 -10 74 -7 244
l3 244 25 27 c14 15 39 36 55 48 23 15 20 10 -14 -26 -25 -26 -41 -50 -37 -54
7 -7 86 70 162 157 17 19 41 44 53 55 l23 20 -7 -77 c-5 -50 -4 -78 3 -78 5 0
13 32 16 71 8 81 20 119 37 119 12 0 7 -208 -8 -352 -4 -39 -2 -58 5 -58 6 0
12 17 14 38 2 25 8 37 18 37 12 0 15 19 17 100 4 178 24 819 26 837 4 30 -18
24 -24 -7 -5 -24 -7 -20 -8 22 0 28 3 54 8 57 13 9 0 55 -18 61 -9 3 -47 35
-86 71 -38 36 -60 60 -48 54 12 -5 25 -15 28 -20 9 -15 22 -12 29 7 10 26 -15
48 -250 229 -30 23 -51 44 -48 47 3 3 -4 8 -15 12 -12 3 -21 10 -21 15 0 4
-20 11 -45 14 -25 4 -45 11 -45 17 0 9 -7 9 -65 3z m-52 -41 c-7 -2 -19 -2
-25 0 -7 3 -2 5 12 5 14 0 19 -2 13 -5z m-433 -196 c0 -2 -12 -14 -27 -28
l-28 -24 24 28 c23 25 31 32 31 24z m835 -7 c3 -5 1 -10 -4 -10 -6 0 -11 5
-11 10 0 6 2 10 4 10 3 0 8 -4 11 -10z m-955 -113 c0 -2 -15 -16 -32 -33 l-33
-29 29 33 c28 30 36 37 36 29z m1138 -112 c-3 -3 -18 11 -33 32 l-28 38 34
-32 c18 -18 30 -35 27 -38z m37 -15 c3 -5 1 -10 -4 -10 -6 0 -11 5 -11 10 0 6
2 10 4 10 3 0 8 -4 11 -10z m12 -232 c-2 -13 -4 -5 -4 17 -1 22 1 32 4 23 2
-10 2 -28 0 -40z m-1280 -35 c-3 -10 -5 -4 -5 12 0 17 2 24 5 18 2 -7 2 -21 0
-30z m1243 -358 c0 -8 -4 -15 -10 -15 -5 0 -7 7 -4 15 4 8 8 15 10 15 2 0 4
-7 4 -15z m-1155 -145 c27 -30 12 -34 -15 -5 -13 14 -19 25 -13 25 5 0 18 -9
28 -20z m795 -330 c-5 -56 -10 -124 -10 -150 0 -47 -2 -51 -60 -101 -33 -29
-60 -57 -60 -64 0 -6 -23 -31 -50 -54 l-50 -43 -68 43 c-37 23 -88 57 -114 76
l-48 35 1 96 c1 120 11 196 22 167 6 -15 10 -17 17 -6 9 16 38 -1 128 -77 43
-36 50 -47 41 -58 -16 -20 -3 -30 17 -13 15 12 21 9 49 -24 18 -20 35 -37 39
-37 14 0 5 21 -24 53 l-29 34 30 29 c17 16 62 68 101 117 39 48 73 85 75 83 2
-2 -1 -50 -7 -106z m-483 13 c-3 -10 -5 -2 -5 17 0 19 2 27 5 18 2 -10 2 -26
0 -35z m1448 -253 c4 -6 -35 -9 -112 -8 -85 1 -106 3 -73 8 71 11 178 11 185
0z m21 -45 c-26 -19 -42 -19 -26 0 7 8 20 15 29 15 13 -1 13 -3 -3 -15z
m-1148 -115 c-21 -29 -38 -39 -38 -22 0 12 14 28 35 40 28 16 28 15 3 -18z
m760 -27 c-10 -2 -26 -2 -35 0 -10 3 -2 5 17 5 19 0 27 -2 18 -5z m-814 -34
c-10 -16 -24 -9 -24 12 0 18 2 19 15 9 8 -7 12 -16 9 -21z m946 20 c-19 -5
-82 -11 -140 -13 -102 -5 -103 -5 -22 3 45 5 86 11 89 15 3 3 29 6 57 5 50 -1
50 -1 16 -10z m473 -26 c-24 -2 -62 -2 -85 0 -24 2 -5 4 42 4 47 0 66 -2 43
-4z m116 -67 c-12 -10 -69 -24 -69 -16 0 5 8 11 18 13 22 6 57 8 51 3z m-521
-46 c16 -1 16 -1 0 -10 -14 -9 -200 -51 -217 -49 -3 0 35 15 84 34 50 18 96
32 103 29 8 -2 21 -4 30 -4z m-857 -446 c82 -37 68 -40 -17 -4 -38 16 -63 30
-55 30 7 0 40 -12 72 -26z m-77 0 c9 -3 16 -12 16 -20 0 -9 11 -14 31 -14 35
0 149 -59 289 -148 127 -81 129 -82 135 -82 3 1 28 -11 55 -26 55 -30 74 -26
44 8 -19 23 -19 23 2 6 11 -10 23 -18 27 -18 3 0 3 8 0 18 -6 15 -5 16 11 2
16 -12 17 -24 12 -79 -6 -57 -40 -161 -53 -161 -17 0 -167 87 -207 120 -28 23
-58 46 -69 51 -32 18 -31 1 2 -27 71 -59 74 -64 20 -31 -31 19 -109 62 -175
96 -65 34 -125 66 -133 73 -10 8 -15 7 -21 -3 -5 -8 -23 -12 -45 -11 -26 2
-36 -1 -33 -10 3 -8 -22 -25 -66 -44 -39 -17 -123 -62 -186 -99 -63 -37 -136
-78 -163 -91 -26 -14 -51 -33 -54 -42 -9 -25 -55 -61 -79 -62 -20 0 -22 7 -29
100 l-7 99 58 66 c62 69 88 89 197 149 37 21 66 41 63 44 -9 9 52 42 169 93
105 45 154 56 189 43z m181 -54 c3 -5 1 -10 -4 -10 -6 0 -11 5 -11 10 0 6 2
10 4 10 3 0 8 -4 11 -10z m532 -107 c-2 -16 -4 -3 -4 27 0 30 2 43 4 28 2 -16
2 -40 0 -55z m-276 -32 c31 -17 65 -41 75 -52 17 -19 13 -19 -36 6 -75 38
-127 74 -134 92 -6 14 -4 14 16 1 13 -8 48 -29 79 -47z m256 -58 c-3 -10 -5
-2 -5 17 0 19 2 27 5 18 2 -10 2 -26 0 -35z m-1340 21 c-3 -3 -12 -4 -19 -1
-8 3 -5 6 6 6 11 1 17 -2 13 -5z m64 -8 c-6 -8 -25 -19 -42 -26 -16 -7 -28
-18 -26 -24 3 -7 -1 -20 -9 -31 -13 -17 -14 -16 -14 17 0 33 4 37 48 56 58 25
57 25 43 8z m704 -115 c77 -44 141 -78 143 -76 10 9 -16 28 -118 86 -61 34
-108 64 -107 66 5 4 214 -111 289 -160 32 -20 79 -48 105 -62 26 -14 56 -31
65 -37 9 -7 21 -9 25 -5 4 5 1 13 -7 18 -20 14 -4 8 47 -16 51 -24 53 -33 12
-42 -21 -4 -65 -39 -141 -114 -61 -60 -114 -109 -117 -109 -11 0 -49 -64 -61
-103 -10 -31 -9 -46 5 -86 10 -31 14 -62 10 -84 -8 -42 1 -77 19 -77 7 0 25
-18 39 -39 31 -47 129 -119 212 -156 l60 -27 -50 -23 c-27 -13 -90 -42 -140
-65 -49 -23 -112 -55 -139 -71 -26 -17 -51 -28 -53 -25 -8 7 -37 -9 -113 -64
-36 -26 -83 -54 -105 -62 -40 -16 -43 -15 -115 14 -41 16 -111 42 -155 58 -44
15 -115 44 -157 64 -42 20 -85 36 -95 36 -20 1 -95 39 -76 40 6 0 26 12 43 26
27 24 34 25 54 14 30 -15 43 -8 111 59 56 56 93 119 102 178 4 21 13 43 21 49
22 16 11 107 -27 231 -25 79 -43 116 -82 167 -54 72 -110 116 -147 116 -13 0
-35 9 -49 20 l-25 19 70 46 c39 25 74 45 78 45 18 0 165 94 175 111 5 11 14
17 19 14 5 -3 35 11 67 32 54 35 135 71 159 73 5 0 73 -36 149 -79z m548 -81
c1 -83 -10 -110 -44 -110 -30 0 -32 17 -10 83 11 34 23 80 27 102 9 63 26 18
27 -75z m-3 -235 l0 -74 -40 -11 c-46 -12 -120 -78 -120 -107 0 -10 7 -28 15
-39 20 -27 18 -58 -6 -79 -16 -16 -19 -26 -13 -59 3 -21 17 -59 30 -84 23 -43
86 -101 112 -102 13 0 16 -48 3 -68 -6 -10 -27 -4 -91 28 -46 22 -89 40 -96
40 -19 0 -103 98 -130 152 -23 46 -24 81 -1 72 7 -2 22 21 35 56 14 34 30 60
38 60 8 0 14 4 14 8 0 5 7 17 15 28 8 10 1 -11 -16 -48 -49 -107 -30 -114 22
-8 25 52 60 117 78 145 33 52 131 164 144 165 4 0 7 -34 7 -75z m-1246 -14
c53 -12 61 -18 117 -84 76 -91 99 -132 135 -233 l28 -81 -22 -53 c-26 -61
-104 -163 -164 -212 -24 -19 -71 -47 -106 -60 l-62 -26 6 81 c6 66 11 85 28
98 12 9 35 30 52 45 17 16 45 37 63 46 42 23 48 43 22 78 -27 37 -26 41 4 70
27 26 24 46 -5 28 -32 -21 -68 5 -96 68 -25 58 -28 59 -77 39 -18 -7 -18 -2
-12 111 8 125 13 151 26 118 5 -15 23 -24 63 -33z m1095 12 c-17 -21 -39 -42
-48 -47 -9 -5 4 12 29 38 53 55 65 61 19 9z m-1102 21 c-3 -3 -12 -4 -19 -1
-8 3 -5 6 6 6 11 1 17 -2 13 -5z m124 -40 c13 -16 12 -16 -18 0 -18 9 -33 21
-33 27 0 13 32 -4 51 -27z m82 -119 c31 -44 -5 -13 -45 39 -31 40 -31 40 -4
16 15 -14 37 -38 49 -55z m807 31 c0 -2 -8 -10 -17 -17 -16 -13 -17 -12 -4 4
13 16 21 21 21 13z m208 -10 c-26 -19 -22 -29 9 -21 l26 6 -6 -197 c-4 -108
-9 -199 -11 -201 -12 -12 -83 55 -104 96 -24 48 -29 105 -11 116 5 4 15 18 20
32 7 20 5 33 -11 60 -24 41 -17 61 38 98 39 27 83 37 50 11z m-306 -82 c-25
-42 -48 -71 -50 -65 -3 10 83 141 93 141 2 0 -17 -34 -43 -76z m59 39 c-5 -10
-17 -27 -26 -38 -16 -19 -17 -19 -3 5 26 46 29 50 34 50 3 0 0 -8 -5 -17z
m-930 -172 c22 -12 27 -21 22 -39 -4 -16 2 -31 17 -47 26 -28 21 -39 -28 -64
-20 -11 -50 -33 -66 -50 -17 -17 -33 -31 -36 -31 -13 0 -20 224 -8 231 8 5 6
15 -5 33 -23 35 -21 61 6 73 20 9 24 6 46 -40 13 -28 36 -57 52 -66z m879 89
c-6 -11 -13 -20 -16 -20 -2 0 0 9 6 20 6 11 13 20 16 20 2 0 0 -9 -6 -20z
m-641 -65 c0 -5 -4 -3 -9 5 -5 8 -9 22 -9 30 0 16 17 -16 18 -35z m-362 -207
c-3 -8 -6 -5 -6 6 -1 11 2 17 5 13 3 -3 4 -12 1 -19z m1073 -42 c9 -15 3 -12
-19 8 -17 17 -31 31 -31 33 0 9 39 -23 50 -41z m220 -133 c0 -7 -39 17 -46 28
-3 6 5 3 20 -6 14 -10 26 -19 26 -22z m-1049 -13 c-46 -42 -77 -55 -45 -19 18
21 74 59 84 59 3 -1 -15 -19 -39 -40z m1059 -60 c0 -16 4 -30 9 -30 4 0 11
-39 14 -87 4 -49 9 -108 13 -133 l6 -45 -103 -64 c-159 -97 -210 -130 -264
-173 -36 -28 -29 -20 24 30 40 38 104 89 142 113 74 48 98 86 29 47 -67 -38
-167 -123 -332 -280 l-158 -150 -67 60 c-83 73 -173 132 -250 162 -32 13 -102
48 -156 79 -54 30 -102 50 -105 45 -4 -5 -20 -10 -35 -12 -27 -3 -28 -1 -23
25 16 81 17 101 7 107 -7 5 -11 -2 -11 -15 0 -15 -3 -20 -10 -13 -14 14 -26
254 -12 254 6 0 9 -7 6 -15 -5 -11 2 -15 26 -15 24 0 41 -9 66 -37 19 -20 34
-41 34 -46 0 -4 5 -5 11 -2 6 5 4 16 -7 32 l-16 26 28 -7 c53 -12 232 -106
253 -132 11 -14 24 -23 30 -20 14 9 73 -44 67 -60 -3 -9 2 -14 15 -14 11 0 22
-7 25 -15 5 -12 12 -10 38 13 18 15 47 34 64 41 31 13 35 12 72 -18 21 -17 44
-31 49 -31 22 0 10 21 -29 48 -21 15 -39 29 -39 32 0 6 106 83 138 100 17 9
25 9 30 1 8 -12 65 21 174 102 67 49 210 126 235 127 7 0 12 -13 12 -30z
m-305 -115 c-27 -22 -85 -50 -85 -40 0 4 103 65 110 64 3 0 -8 -11 -25 -24z
m-517 -121 c74 -28 102 -43 102 -56 0 -40 -38 -29 -137 38 -54 36 -91 64 -83
62 8 -3 61 -22 118 -44z m866 -171 c11 -135 7 -317 -7 -338 -17 -25 -22 -205
-6 -205 6 0 13 9 16 20 3 11 7 20 10 20 11 0 175 -145 243 -215 41 -42 96 -92
123 -112 26 -19 47 -38 47 -43 0 -11 -66 -24 -135 -25 -33 0 -73 -5 -89 -9
-21 -7 -27 -6 -22 3 11 17 -8 14 -76 -14 -34 -14 -72 -25 -85 -25 -13 0 -77
-18 -141 -39 -64 -22 -134 -43 -156 -47 -21 -4 -47 -15 -58 -26 -10 -10 -51
-30 -91 -44 -140 -50 -125 -81 18 -38 50 15 103 27 119 26 16 -1 35 3 41 8 10
8 157 63 335 124 41 14 136 37 210 52 88 18 140 33 150 45 15 16 18 15 50 -12
19 -16 30 -29 24 -29 -21 0 -24 -44 -8 -107 14 -57 14 -67 0 -105 -19 -54 -39
-175 -31 -189 12 -19 25 3 26 44 0 23 4 60 8 82 8 37 9 35 10 -28 1 -64 -15
-246 -25 -275 -3 -10 -15 -6 -46 13 -24 15 -59 33 -78 41 -19 9 -53 24 -75 34
-22 10 -56 21 -76 24 -20 4 -83 24 -140 45 -167 63 -279 83 -441 79 -109 -2
-138 -6 -138 -17 0 -10 -9 -12 -37 -7 -21 4 -114 10 -207 13 -246 8 -454 -15
-620 -68 -36 -11 -62 -15 -66 -9 -3 5 -45 -3 -100 -21 -52 -17 -131 -38 -174
-47 -45 -10 -81 -23 -84 -31 -3 -9 2 -11 19 -7 13 3 -17 -14 -68 -39 -51 -25
-110 -48 -133 -51 l-40 -7 0 165 c0 91 3 185 6 210 l6 44 102 39 c55 21 124
47 151 57 30 12 45 14 38 7 -47 -48 29 -36 148 22 110 54 367 159 390 159 8 0
34 12 59 26 25 14 69 35 98 46 28 11 52 24 52 29 0 12 2 12 -74 -16 -36 -13
-72 -22 -79 -19 -8 3 -108 -29 -223 -69 -115 -41 -261 -91 -324 -111 -63 -20
-160 -56 -215 -80 -92 -40 -101 -42 -109 -25 -9 20 -5 27 87 130 73 83 164
162 189 164 10 1 35 17 56 37 20 20 69 62 108 95 40 32 98 88 130 126 32 37
64 67 72 67 10 0 12 14 8 68 -20 247 -17 364 8 343 6 -5 31 -14 54 -21 55 -14
234 -115 279 -156 38 -36 53 -30 23 9 -55 70 86 3 189 -89 53 -47 62 -70 17
-40 -29 19 -36 20 -36 6 0 -5 28 -24 61 -41 34 -17 72 -42 85 -56 26 -29 45
-23 26 7 -10 16 -6 22 36 46 26 15 79 55 119 88 39 34 97 83 129 110 32 26 91
64 131 84 40 20 73 40 73 44 0 11 -18 10 -41 -2 -36 -20 -19 -1 29 31 26 18
64 47 85 66 20 18 41 33 46 33 4 0 11 -34 15 -77z m-304 -107 c0 -2 -39 -36
-86 -77 -48 -41 -111 -95 -140 -121 -29 -26 -68 -55 -86 -64 -30 -14 -27 -10
22 40 30 31 60 54 67 52 7 -3 16 1 20 8 5 7 35 34 68 59 33 25 76 59 95 76 36
31 40 34 40 27z m337 -118 c-3 -8 -6 -5 -6 6 -1 11 2 17 5 13 3 -3 4 -12 1
-19z m-1387 -113 c0 -62 -3 -73 -15 -69 -11 5 -12 11 -4 25 5 11 7 24 4 30 -7
10 3 89 11 89 2 0 4 -34 4 -75z m-41 -135 c-23 -27 -44 -50 -47 -50 -5 0 14
25 57 73 42 46 35 30 -10 -23z m1980 -345 c-11 -79 -29 -124 -29 -76 0 29 32
172 38 167 2 -3 -2 -44 -9 -91z m-602 -166 c-20 -12 -150 -49 -155 -45 -5 5
131 54 153 54 19 1 19 1 2 -9z m-1557 -13 c0 -5 -88 -46 -97 -46 -9 1 78 49
90 50 4 0 7 -2 7 -4z m-470 -63 c0 -5 -5 -15 -10 -23 -8 -12 -10 -11 -10 8 0
12 5 22 10 22 6 0 10 -3 10 -7z m-15 -158 c-4 -25 -9 -44 -12 -41 -2 2 -1 25
2 51 4 25 9 44 12 41 2 -2 1 -25 -2 -51z m1895 -84 c20 -9 12 -10 -40 -5 -36
3 -83 10 -105 15 -31 6 -22 8 40 5 44 -3 91 -9 105 -15z m-581 -5 c-11 -10
-89 -15 -89 -6 0 5 21 10 47 10 25 0 44 -2 42 -4z m191 -13 l65 -8 -55 -5
c-46 -4 -55 -8 -58 -26 -3 -18 -8 -20 -65 -16 -34 3 -78 12 -97 22 l-35 18 73
7 c39 4 72 12 72 17 0 5 8 7 18 4 9 -2 46 -8 82 -13z m338 -7 c96 -13 176 -27
180 -30 25 -25 -62 -23 -168 4 -42 11 -101 22 -133 26 -32 4 -60 11 -63 15 -7
12 -13 12 184 -15z m-869 -20 c-14 -14 -306 -72 -315 -63 -2 2 22 10 53 17 32
7 60 16 63 21 3 4 39 12 80 17 88 11 125 14 119 8z m-963 -76 c-4 -31 -13 -86
-20 -121 l-13 -64 -4 80 c-3 44 -3 101 -1 126 3 41 6 46 24 41 18 -4 20 -10
14 -62z m1051 64 c-3 -3 -12 -4 -19 -1 -8 3 -5 6 6 6 11 1 17 -2 13 -5z m-160
-40 c-3 -3 -12 -4 -19 -1 -8 3 -5 6 6 6 11 1 17 -2 13 -5z m1463 -46 c47 -17
108 -44 135 -61 63 -39 59 -36 53 -43 -4 -3 -48 14 -100 39 -51 24 -120 54
-153 67 -33 13 -64 27 -70 32 -14 13 33 1 135 -34z m-1965 -19 c-55 -17 -77
-18 -62 -2 8 7 72 21 102 21 11 0 -7 -8 -40 -19z m2205 -80 c0 -24 -4 -38 -10
-34 -17 10 -11 75 7 75 2 0 3 -18 3 -41z m-2511 -32 c-2 -1 -12 -9 -21 -16
-15 -12 -18 -11 -18 3 0 10 8 16 22 16 12 0 19 -1 17 -3z m-88 -129 l-21 -43
6 40 c3 22 10 56 17 75 l12 35 3 -32 c2 -18 -6 -51 -17 -75z m2587 47 c-3 -3
-9 2 -12 12 -6 14 -5 15 5 6 7 -7 10 -15 7 -18z m-2171 -147 c-3 -8 -6 -5 -6
6 -1 11 2 17 5 13 3 -3 4 -12 1 -19z m-20 -100 c-3 -7 -5 -2 -5 12 0 14 2 19
5 13 2 -7 2 -19 0 -25z m1567 8 c67 -28 113 -101 191 -298 25 -64 45 -129 44
-145 0 -19 -5 -9 -15 30 -16 69 -70 187 -114 254 -18 26 -60 76 -94 111 -64
66 -65 70 -12 48z m148 -688 c-9 -9 -12 -7 -12 12 0 19 3 21 12 12 9 -9 9 -15
0 -24z m-1170 -439 c7 -4 3 -11 -11 -18 -12 -7 -26 -9 -31 -6 -11 7 -13 55 -4
80 6 14 10 10 21 -16 8 -18 19 -36 25 -40z m118 -13 c-17 -22 -93 -48 -124
-44 l-27 3 33 16 c28 14 90 33 122 38 5 0 3 -6 -4 -13z m-343 -278 c-3 -7 -5
-2 -5 12 0 14 2 19 5 13 2 -7 2 -19 0 -25z m13 -119 c0 -17 -20 -29 -20 -11 0
4 -3 18 -7 32 -6 22 -5 24 10 11 9 -7 17 -22 17 -32z m89 -171 c46 -62 40
-105 -7 -55 -29 31 -62 106 -61 142 l0 30 19 -37 c10 -21 32 -57 49 -80z m347
-53 c-11 -8 -29 -15 -40 -14 -15 0 -11 4 14 14 45 17 49 17 26 0z"/>
<path d="M6234 5518 c-140 -100 -172 -128 -145 -128 5 0 36 22 70 49 33 27 83
63 111 81 27 18 50 34 50 36 0 14 -35 -2 -86 -38z"/>
<path d="M5928 9983 c7 -3 16 -2 19 1 4 3 -2 6 -13 5 -11 0 -14 -3 -6 -6z"/>
<path d="M5829 9712 c-14 -9 -48 -34 -77 -55 -28 -21 -57 -37 -64 -36 -38 5
-55 -4 -73 -37 -25 -46 -88 -111 -103 -106 -7 2 -12 -6 -13 -20 l0 -23 -11 23
c-17 34 -29 26 -23 -15 6 -37 4 -39 -50 -77 -111 -79 -114 -113 -4 -53 l69 37
0 -89 c0 -62 4 -91 13 -94 9 -3 7 -9 -5 -24 -21 -23 -23 -37 -5 -30 15 6 22
-39 7 -48 -15 -9 -12 -25 4 -25 8 0 16 -5 18 -11 3 -9 10 -8 25 1 18 12 29 8
96 -36 42 -27 76 -53 76 -58 1 -4 -17 -30 -39 -56 -22 -26 -40 -54 -40 -61 0
-7 -18 -34 -41 -61 -25 -30 -35 -48 -26 -48 8 0 36 26 62 58 26 31 65 76 86
99 l39 43 53 -40 c52 -40 67 -47 67 -32 0 4 -3 12 -7 18 -5 5 13 -12 38 -40
39 -42 47 -47 53 -31 7 19 1 26 -106 140 l-47 50 39 55 c118 166 137 198 105
186 -12 -4 -15 5 -15 50 0 30 4 63 9 72 11 21 -8 92 -25 92 -7 0 -15 7 -18 16
-3 8 -10 13 -16 9 -10 -6 -118 77 -133 101 -6 10 3 19 28 31 19 9 35 20 35 25
0 11 -7 10 -33 -3 -12 -6 6 15 41 46 34 31 62 61 62 66 0 14 -22 10 -51 -9z
m-159 -115 c0 -2 -12 -14 -27 -28 l-26 -24 19 27 c16 23 34 36 34 25z m96
-120 c15 -27 44 -66 65 -87 l39 -38 -5 -101 c-5 -92 -8 -107 -34 -144 -15 -23
-38 -61 -49 -84 -27 -52 -31 -54 -76 -42 -45 12 -166 128 -166 158 0 29 39 70
124 131 69 49 90 70 69 70 -5 0 -50 -31 -100 -69 -88 -66 -93 -68 -93 -44 0
29 44 72 130 124 33 20 56 39 53 43 -4 3 4 17 17 31 13 14 21 27 18 30 -4 4
-122 -86 -199 -152 -15 -13 -16 -8 -12 54 6 77 22 101 107 158 58 40 72 35
112 -38z m77 -35 c10 -11 14 -23 9 -26 -9 -5 -41 24 -57 52 -11 20 24 0 48
-26z m-9 -558 c7 -19 2 -18 -19 6 -16 17 -16 20 -3 15 9 -4 19 -13 22 -21z"/>
<path d="M5691 9245 c-52 -36 -106 -76 -120 -89 -42 -42 -15 -41 36 2 26 22
81 61 121 86 39 26 72 51 72 56 0 17 -12 11 -109 -55z"/>
<path d="M5684 9154 c-76 -51 -100 -71 -93 -78 7 -7 169 103 169 115 0 13 0
13 -76 -37z"/>
<path d="M5678 9104 c-16 -8 -28 -19 -28 -25 0 -6 3 -9 8 -7 48 24 62 32 62
40 0 11 -11 10 -42 -8z"/>
<path d="M2270 9375 c-18 -9 -27 -10 -32 -2 -5 8 -28 6 -83 -6 -82 -17 -105
-30 -105 -55 0 -13 2 -13 18 0 17 16 83 41 89 35 2 -2 -6 -12 -17 -22 -25 -23
-26 -39 -1 -32 16 4 21 -3 30 -40 6 -24 18 -46 27 -50 23 -8 28 4 10 22 -9 9
-16 32 -16 51 0 31 4 36 60 64 33 17 60 35 60 40 0 13 -10 12 -40 -5z m-50
-25 c-19 -13 -30 -13 -30 0 0 6 10 10 23 10 18 0 19 -2 7 -10z"/>
<path d="M6128 9188 c-33 -12 -38 -33 -5 -25 l22 6 -22 -16 c-33 -22 -28 -33
12 -33 19 0 35 3 35 8 0 4 16 16 35 26 34 18 46 36 25 36 -6 0 -19 -6 -30 -12
-16 -10 -22 -10 -32 4 -10 12 -19 14 -40 6z"/>
<path d="M7430 9038 c-48 -13 -100 -55 -112 -89 -12 -35 -49 -61 -69 -48 -33
21 -70 9 -120 -38 -45 -42 -50 -51 -46 -79 4 -25 0 -37 -19 -55 -13 -12 -24
-27 -24 -32 0 -5 -11 -20 -25 -33 -28 -26 -32 -42 -10 -50 21 -8 8 -52 -23
-79 l-26 -22 27 -18 c23 -15 40 -17 115 -11 101 8 142 1 142 -23 0 -29 22 -41
72 -41 27 0 59 -7 71 -15 13 -8 48 -19 78 -25 108 -21 209 30 209 106 0 29 5
36 39 54 52 26 71 55 71 106 0 44 -17 66 -60 79 -39 12 -50 25 -50 62 0 39
-37 83 -71 83 -20 0 -19 2 9 28 61 57 51 110 -25 136 -52 18 -101 19 -153 4z
m193 -50 c17 -27 -7 -65 -63 -100 -27 -17 -50 -35 -50 -39 0 -4 23 -5 50 -2
63 7 90 -12 90 -65 0 -38 23 -72 49 -72 32 0 61 -30 61 -63 0 -42 -23 -73 -68
-95 -29 -13 -38 -24 -40 -47 -7 -76 -52 -108 -150 -107 -74 1 -113 16 -69 27
45 12 32 28 -17 22 -37 -5 -47 -3 -65 17 -29 31 -27 38 12 35 65 -4 80 4 22
12 -33 4 -74 5 -92 2 -24 -4 -39 1 -59 16 -23 18 -36 20 -71 15 -23 -3 -59 -3
-79 1 l-37 6 32 20 c32 20 34 39 3 40 -14 0 -13 3 6 16 26 18 28 38 5 51 -14
8 -12 12 14 26 17 8 39 30 48 48 14 29 14 34 0 44 -25 19 -17 42 18 52 66 21
90 23 97 11 6 -9 14 -7 31 5 31 21 111 22 103 1 -4 -8 -1 -15 5 -15 20 0 25
32 8 42 -9 4 -14 15 -11 23 4 10 -5 15 -36 17 l-42 3 22 28 c12 15 26 25 31
21 5 -3 17 2 25 11 24 24 202 18 217 -7z m-406 -104 c-3 -3 -12 -4 -19 -1 -8
3 -5 6 6 6 11 1 17 -2 13 -5z m-82 -112 c-9 -9 -35 8 -35 24 0 16 2 16 20 -1
11 -10 18 -20 15 -23z m-15 -37 c0 -2 -10 -9 -22 -15 -22 -11 -22 -10 -4 4 21
17 26 19 26 11z m-40 -80 c0 -11 -50 -36 -60 -30 -17 11 8 35 36 35 13 0 24
-2 24 -5z m-10 -60 c0 -2 -10 -10 -22 -16 -21 -11 -22 -11 -9 4 13 16 31 23
31 12z m70 -74 l85 -6 -107 -9 c-114 -8 -137 -4 -117 21 8 9 20 12 33 8 12 -4
59 -10 106 -14z m186 -62 c18 -20 18 -20 -21 -17 -28 2 -41 8 -43 21 -5 25 40
22 64 -4z"/>
<path d="M6155 9024 c-57 -30 -105 -67 -105 -81 0 -11 4 -11 21 -3 15 8 24 8
34 0 10 -8 21 -8 42 4 41 22 95 74 88 86 -9 15 -45 12 -80 -6z"/>
<path d="M6177 8939 c-20 -16 -36 -35 -34 -41 1 -6 -27 -34 -62 -63 -59 -48
-74 -72 -43 -69 10 2 10 -1 1 -12 -26 -32 4 -25 39 8 20 20 48 39 62 43 36 11
80 44 80 61 0 8 6 14 14 14 19 0 103 76 93 86 -4 4 -23 0 -42 -9 -30 -14 -36
-15 -49 -2 -19 19 -15 20 -59 -16z"/>
<path d="M2031 8864 c-95 -17 -198 -50 -233 -75 -28 -20 -54 -87 -39 -102 4
-4 13 10 20 32 6 22 22 47 34 56 52 37 290 91 367 83 50 -4 51 -38 6 -126 -20
-37 -36 -72 -36 -76 0 -5 16 -6 35 -4 l35 4 -21 -23 c-25 -25 -19 -57 8 -49
48 13 79 15 93 5 11 -8 12 -12 3 -15 -21 -9 -64 -46 -59 -51 3 -3 21 5 41 17
20 12 39 20 42 17 9 -10 -7 -74 -22 -87 -19 -15 -19 -30 -2 -30 18 0 47 63 47
100 0 38 20 48 127 63 67 9 88 8 91 -1 2 -7 17 -12 33 -12 18 0 32 -6 36 -16
6 -15 2 -29 -22 -86 -4 -10 -3 -18 2 -18 12 0 43 65 43 90 0 23 13 25 61 9 75
-26 86 -59 39 -112 -16 -19 -30 -39 -30 -43 0 -5 14 -17 30 -26 39 -22 41 -68
5 -96 -27 -21 -32 -32 -15 -32 21 0 60 49 60 75 0 16 -12 38 -30 57 l-30 30
30 34 c36 42 38 67 6 99 -22 22 -81 45 -117 45 -9 0 -31 7 -49 16 -38 19 -154
14 -235 -11 -42 -12 -50 -12 -71 2 -17 11 -35 13 -66 8 -40 -7 -42 -7 -28 11
8 11 30 36 49 56 19 21 31 41 27 45 -4 5 -16 -2 -26 -15 -19 -22 -76 -49 -86
-39 -3 3 8 29 25 59 32 57 38 96 21 129 -9 16 -21 19 -68 18 -31 -1 -90 -7
-131 -15z"/>
<path d="M1812 8645 c-58 -66 -60 -136 -6 -181 l26 -21 -35 -22 c-89 -55 -131
-136 -89 -174 26 -24 107 -39 173 -31 88 10 71 24 -28 24 -167 0 -187 51 -61
151 53 41 75 46 131 24 9 -4 17 -3 17 1 0 11 -57 44 -76 44 -23 0 -65 31 -74
56 -13 32 5 86 40 120 16 16 30 32 30 37 0 16 -20 5 -48 -28z"/>
<path d="M4635 8408 c-127 -10 -185 -23 -185 -42 0 -8 -16 -16 -38 -19 -45 -8
-117 -52 -130 -82 -6 -12 -28 -43 -51 -69 -48 -55 -52 -88 -16 -112 27 -17 39
-17 200 6 39 5 107 9 153 10 48 0 82 4 82 10 0 16 -180 12 -293 -6 -153 -24
-180 0 -101 88 18 20 37 46 44 58 11 21 19 21 68 3 6 -3 12 0 12 5 0 6 -9 14
-21 17 -30 10 -13 21 56 41 93 25 144 33 228 33 111 1 88 21 -26 23 l-92 1 65
7 c144 17 443 8 395 -11 -11 -4 -57 -8 -102 -8 -48 -1 -83 -5 -83 -11 0 -5 15
-10 33 -10 23 0 28 -3 17 -10 -27 -17 -4 -19 45 -5 31 10 92 15 170 15 91 0
126 4 141 15 10 8 31 15 47 15 15 0 27 5 27 10 0 6 -41 10 -104 10 -80 0 -106
3 -116 15 -10 12 -40 15 -164 14 -83 -1 -200 -6 -261 -11z m-128 -44 c-3 -3
-12 -4 -19 -1 -8 3 -5 6 6 6 11 1 17 -2 13 -5z m586 -1 c-7 -2 -19 -2 -25 0
-7 3 -2 5 12 5 14 0 19 -2 13 -5z"/>
<path d="M2433 8234 c-7 -19 -120 -76 -192 -98 -94 -28 -194 -14 -228 31 -7 9
-16 14 -19 10 -14 -13 8 -39 48 -57 81 -37 199 -20 330 46 43 22 54 24 83 14
53 -17 265 17 265 43 0 5 -10 6 -22 3 -50 -15 -203 -35 -225 -30 -24 6 -30 19
-13 29 15 9 12 25 -5 25 -9 0 -18 -7 -22 -16z"/>
<path d="M4695 8073 c-117 -10 -234 -23 -249 -29 -9 -3 -16 -12 -16 -18 0 -7
-15 -17 -34 -24 -50 -18 -144 -82 -203 -138 -40 -38 -53 -57 -53 -80 -1 -25
-10 -35 -68 -71 -36 -24 -76 -43 -87 -43 -27 0 -97 -48 -92 -63 8 -23 126 -12
227 20 52 17 150 41 217 54 68 13 123 28 123 33 0 17 -238 -28 -355 -68 -38
-13 -95 -27 -125 -30 l-55 -7 24 21 c13 11 33 20 46 20 12 0 37 11 56 25 62
45 90 56 143 59 55 3 76 11 76 26 0 5 -14 4 -32 -1 -58 -16 -64 -9 -14 17 26
14 80 32 119 40 40 9 74 17 76 20 28 27 -133 -5 -205 -41 -27 -13 -50 -23 -52
-20 -24 24 106 138 227 198 83 41 86 42 192 42 59 0 110 3 114 6 3 4 -20 10
-52 15 l-58 8 85 7 c47 4 122 7 168 8 53 1 81 5 77 11 -6 9 -127 11 -220 3z"/>
<path d="M5561 7750 c-8 -98 -14 -139 -27 -164 -19 -40 -18 -52 4 -33 10 10
21 14 24 11 4 -3 9 8 13 24 3 16 19 42 35 57 33 31 30 57 -3 28 -20 -18 -20
-17 -15 5 4 12 2 22 -3 22 -5 0 -10 -6 -11 -12 0 -7 -4 10 -8 37 -4 28 -8 39
-9 25z"/>
<path d="M6303 7703 c-7 -2 -13 -9 -13 -13 0 -11 101 -1 115 11 9 9 -80 11
-102 2z"/>
<path d="M5693 7667 c-24 -11 -29 -22 -14 -31 5 -3 14 1 21 9 8 10 31 15 67
15 31 0 52 4 48 9 -7 13 -94 11 -122 -2z"/>
<path d="M5074 7117 c-44 -17 -225 -209 -214 -227 6 -10 33 11 107 87 115 117
148 153 142 152 -2 0 -18 -5 -35 -12z"/>
<path d="M5069 7048 c-24 -29 -93 -105 -154 -168 -138 -145 -210 -229 -202
-237 4 -3 28 18 54 48 26 30 95 104 153 164 107 111 206 232 197 241 -2 3 -24
-19 -48 -48z"/>
<path d="M7350 7003 c-19 -7 -47 -13 -61 -13 -14 0 -34 -7 -45 -15 -16 -12
-17 -16 -4 -24 11 -8 6 -17 -29 -49 -25 -22 -41 -45 -37 -51 11 -17 21 -14 56
16 31 26 33 26 46 8 8 -10 14 -24 14 -31 0 -14 28 -39 36 -31 3 3 -4 26 -17
52 l-23 45 35 30 c19 16 54 36 78 43 25 8 46 18 48 23 4 13 -55 11 -97 -3z"/>
<path d="M3800 6795 c-98 -52 -113 -68 -106 -112 4 -26 0 -35 -20 -48 -13 -8
-24 -20 -24 -25 0 -17 23 -11 46 11 21 20 26 20 54 9 38 -16 44 -11 30 26 -10
26 -9 31 17 52 16 14 23 26 17 28 -14 6 -6 43 10 46 6 0 16 2 21 2 23 4 55 28
55 41 0 21 -5 20 -100 -30z m-66 -87 c-10 -18 -19 -28 -21 -21 -5 15 15 53 28
53 5 0 2 -15 -7 -32z m21 -48 c3 -5 1 -10 -4 -10 -6 0 -11 5 -11 10 0 6 2 10
4 10 3 0 8 -4 11 -10z"/>
<path d="M8745 6360 c-66 -11 -146 -26 -177 -34 -132 -36 -263 -126 -354 -246
l-38 -50 -74 0 c-68 0 -216 -26 -365 -65 -90 -24 -242 -99 -336 -167 -234
-169 -311 -245 -311 -308 0 -33 29 -36 58 -7 33 33 21 49 -13 17 -29 -27 -32
-14 -9 35 18 38 72 86 228 203 115 85 298 188 317 177 5 -4 29 2 53 13 96 46
263 64 368 40 l53 -12 -92 -13 c-114 -15 -391 -81 -399 -94 -11 -18 2 -20 42
-5 22 7 104 28 184 46 158 37 155 36 531 22 170 -6 200 -9 217 -25 29 -26 35
-61 18 -102 -17 -41 -26 -43 -52 -14 -37 41 -112 70 -206 80 -50 5 -95 12
-100 15 -6 4 -9 1 -6 -7 5 -15 59 -27 120 -28 49 -1 135 -35 176 -69 l32 -27
-22 -52 c-20 -49 -21 -53 -5 -71 15 -16 15 -21 2 -38 -35 -46 -7 -71 65 -59
59 10 50 27 -10 19 -55 -7 -61 0 -32 36 16 19 24 22 55 16 83 -16 117 -128 61
-201 -14 -19 -24 -40 -22 -46 6 -19 59 55 67 93 17 79 -29 161 -100 175 -25 5
-27 8 -18 31 6 16 6 36 -1 57 -9 26 -7 40 10 76 24 53 24 65 5 103 l-15 29 51
-6 c83 -10 123 -64 82 -109 -22 -25 -8 -36 17 -13 49 44 3 126 -78 140 -23 4
-42 10 -42 15 0 13 77 40 190 66 145 34 375 44 452 20 80 -26 250 -112 293
-149 34 -30 39 -39 43 -90 3 -44 0 -67 -16 -100 -11 -23 -25 -54 -31 -69 -8
-20 -18 -28 -35 -28 -14 0 -28 -4 -31 -10 -9 -15 61 -12 73 3 5 6 22 43 37 81
35 87 33 171 -6 212 -33 35 -161 106 -272 150 l-91 37 -150 -5 c-217 -8 -476
-69 -476 -112 0 -22 -22 -20 -72 6 -36 19 -63 24 -162 27 -105 3 -122 6 -154
27 -19 13 -41 24 -48 24 -28 0 -12 29 51 98 126 135 236 187 480 222 157 24
282 25 368 5 36 -8 107 -14 163 -14 84 1 111 -3 174 -26 41 -14 83 -29 93 -32
17 -5 17 -6 0 -18 -15 -12 -8 -14 54 -20 84 -9 123 -36 123 -86 0 -18 8 -34
20 -41 11 -7 20 -21 20 -30 0 -10 5 -18 10 -18 18 0 11 49 -9 59 -10 6 -21 23
-23 38 -3 16 -8 36 -13 45 -19 45 221 -59 290 -126 49 -46 57 -79 30 -126 -8
-14 -14 -44 -15 -67 0 -35 5 -45 29 -62 42 -30 54 -69 49 -159 -4 -64 -13 -95
-53 -185 -53 -119 -78 -148 -197 -219 -58 -35 -83 -58 -62 -58 13 0 145 84
184 117 75 65 150 252 150 375 0 77 -15 116 -54 142 -30 19 -34 57 -11 113 26
61 20 89 -29 138 -72 71 -156 108 -416 181 -30 9 -84 29 -120 44 -76 33 -204
55 -275 46 -30 -3 -74 0 -110 9 -81 19 -234 17 -380 -5z m-585 -354 c0 -19
-14 -34 -28 -29 -8 4 -41 12 -71 19 l-56 12 78 1 c42 1 77 -1 77 -3z m78 -12
c33 -14 35 -17 17 -24 -23 -10 -85 -13 -85 -4 0 9 20 44 26 44 2 0 21 -7 42
-16z m302 -54 c15 -5 -41 -8 -137 -9 -103 -1 -163 3 -163 9 0 12 263 12 300 0z
m100 -271 c0 -26 -27 -56 -40 -43 -8 8 -7 21 6 48 17 35 33 33 34 -5z"/>
<path d="M4160 6007 c-3 -3 -80 -10 -171 -16 -191 -13 -240 -26 -404 -106
-121 -60 -397 -251 -457 -317 -43 -47 -48 -81 -17 -114 l21 -23 -37 -7 c-21
-4 -51 -19 -69 -33 -17 -15 -53 -35 -81 -45 -27 -10 -66 -28 -85 -39 -45 -27
-217 -174 -295 -252 -70 -70 -155 -208 -162 -264 -5 -34 -2 -41 21 -56 32 -21
49 -11 18 11 -12 8 -22 25 -22 37 0 40 93 189 160 258 92 94 262 235 320 264
49 25 303 95 344 95 12 0 26 3 30 7 4 4 31 13 59 19 29 7 70 19 92 27 50 19
206 45 305 52 41 2 77 5 80 5 3 0 -2 5 -10 10 -11 7 3 10 48 10 34 0 62 4 62
10 0 6 -30 10 -70 10 -40 0 -70 -4 -70 -10 0 -6 -29 -10 -67 -10 -64 0 -167
-10 -323 -31 -41 -5 -106 -20 -143 -32 -62 -19 -71 -20 -95 -6 -68 38 -30 86
198 248 158 113 289 185 415 228 133 45 685 67 769 30 41 -18 66 -22 66 -9 0
4 -24 16 -52 26 -41 15 -88 21 -213 24 -88 2 -162 2 -165 -1z m-835 -547 c-11
-5 -31 -8 -45 -8 l-25 0 25 8 c14 4 34 8 45 8 l20 1 -20 -9z m-106 -34 c-9 -8
-161 -47 -166 -42 -7 6 115 45 146 45 13 1 22 -1 20 -3z"/>
<path d="M10125 5419 c16 -25 -8 -57 -77 -105 -40 -27 -103 -63 -140 -79 -37
-17 -68 -36 -70 -43 -4 -18 -156 -85 -251 -111 -43 -12 -97 -31 -120 -43 -40
-20 -75 -33 -307 -114 -126 -44 -215 -46 -302 -7 l-59 26 75 37 c75 37 203
134 232 174 16 23 20 101 4 91 -5 -3 -10 -19 -10 -34 0 -21 -15 -42 -62 -88
-72 -69 -121 -101 -204 -136 -54 -23 -60 -24 -76 -10 -10 9 -18 27 -18 40 0
12 -4 23 -10 23 -16 0 -12 -52 5 -70 15 -16 7 -20 -98 -49 -63 -17 -143 -34
-178 -37 -41 -4 -84 -16 -120 -35 -86 -43 -288 -91 -384 -91 -140 0 -203 29
-405 185 -65 49 -90 58 -90 31 0 -8 4 -13 9 -10 10 7 72 -33 116 -74 55 -50
149 -108 215 -131 96 -33 210 -30 365 10 66 17 146 44 178 61 34 18 73 30 95
30 37 0 250 48 304 69 22 8 35 5 80 -19 29 -16 81 -34 116 -40 80 -14 133 -4
307 60 72 26 141 51 155 55 14 4 46 18 72 31 25 13 81 33 124 44 92 25 256 99
248 112 -3 5 33 26 80 48 76 35 138 75 204 130 26 22 31 80 6 80 -8 0 -12 -5
-9 -11z"/>
<path d="M7443 5348 c-35 -43 -53 -101 -53 -167 0 -38 5 -73 10 -76 6 -4 10
22 10 71 0 64 4 84 27 125 25 46 28 75 6 47z"/>
<path d="M2623 5028 c-72 -75 -100 -115 -87 -126 4 -4 9 -1 11 6 7 19 83 104
126 142 35 30 47 50 29 50 -4 0 -40 -33 -79 -72z"/>
<path d="M2973 4960 c-40 -11 -103 -32 -140 -49 -38 -16 -102 -43 -143 -59
-41 -17 -88 -37 -105 -46 -16 -9 -45 -16 -62 -16 -18 0 -33 -4 -33 -10 0 -5
14 -10 30 -10 28 0 92 25 301 115 72 32 149 57 149 50 0 -2 -16 -13 -35 -25
-37 -23 -101 -97 -92 -107 3 -3 30 20 60 50 32 33 68 59 88 65 19 5 33 14 32
20 -1 5 11 15 27 21 17 5 30 12 30 15 0 10 -31 5 -107 -14z"/>
<path d="M3188 4705 c-76 -13 -165 -32 -197 -43 -33 -11 -69 -18 -79 -15 -33
8 -116 -43 -229 -140 -59 -52 -120 -97 -135 -100 -37 -10 -98 -64 -98 -88 0
-10 -16 -30 -35 -45 -34 -26 -38 -44 -9 -44 8 0 65 49 127 109 150 145 242
225 280 244 94 46 491 135 560 125 11 -2 22 3 24 10 7 18 -48 14 -209 -13z
m-678 -360 c-34 -35 -45 -39 -35 -14 5 13 52 48 64 49 3 0 -10 -16 -29 -35z"/>
<path d="M2715 4644 c-90 -60 -165 -149 -165 -196 0 -37 15 -29 24 12 7 37 91
129 152 167 41 26 55 43 36 43 -4 0 -25 -12 -47 -26z"/>
<path d="M2850 4477 c0 -28 198 -241 258 -279 37 -23 95 -20 174 8 41 15 90
22 320 44 111 10 178 31 248 75 69 43 44 46 -36 4 -42 -22 -84 -37 -92 -34 -9
3 -19 1 -22 -5 -4 -7 -52 -16 -106 -21 -54 -5 -135 -13 -179 -18 -44 -4 -119
-19 -167 -32 l-88 -24 -36 20 c-39 21 -213 199 -241 246 -18 31 -33 38 -33 16z"/>
<path d="M4840 2825 c-30 -7 -82 -11 -115 -8 l-60 5 -69 -53 c-44 -35 -81 -75
-104 -112 -32 -52 -36 -67 -39 -140 -4 -79 -2 -89 61 -275 35 -107 72 -202 82
-213 33 -37 81 -18 70 27 -6 22 -9 25 -17 13 -17 -28 -10 12 11 60 52 115 85
174 122 216 44 50 118 105 142 105 22 0 30 -19 18 -43 -45 -97 -76 -313 -61
-431 21 -166 51 -214 78 -126 26 84 118 335 139 375 11 22 28 59 38 82 18 44
34 48 34 8 0 -13 4 -27 10 -30 11 -7 9 137 -2 145 -26 20 -63 320 -40 320 12
0 32 46 25 54 -4 3 -14 6 -24 6 -26 0 -247 -113 -301 -155 -45 -34 -47 -34
-38 -11 26 68 63 127 102 160 40 33 41 36 18 34 -14 0 -50 -6 -80 -13z m-138
-35 c2 -6 27 -6 71 1 38 6 70 9 72 7 2 -2 -14 -39 -36 -82 -67 -134 -52 -154
58 -70 34 26 232 134 246 134 1 0 1 -35 -2 -77 -2 -54 3 -113 19 -193 l23
-115 -53 -110 c-41 -87 -129 -311 -162 -415 -9 -27 -29 62 -35 152 -7 107 10
224 43 294 34 73 40 109 20 139 -9 14 -23 25 -32 25 -43 0 -159 -95 -214 -175
-23 -34 -81 -161 -105 -230 -7 -18 -9 -16 -22 15 -9 19 -40 112 -70 205 -49
152 -54 176 -49 229 10 96 48 157 145 234 52 42 76 51 83 32z"/>
<path d="M6905 2557 c-33 -17 -85 -57 -117 -89 -42 -43 -58 -53 -62 -42 -10
26 -7 54 10 90 9 19 14 37 11 41 -10 9 -34 -15 -47 -47 -8 -18 -19 -29 -28
-28 -12 2 -18 -9 -23 -42 -4 -25 -19 -88 -33 -140 -36 -132 -35 -204 4 -277
17 -31 30 -64 30 -74 0 -28 22 -69 37 -69 16 0 16 1 -2 36 -24 47 -19 56 20
33 19 -11 44 -19 57 -17 20 3 23 8 20 36 -5 45 30 156 66 212 64 101 203 230
247 230 18 0 23 -8 31 -52 12 -67 40 -82 31 -17 -22 166 -24 172 -66 212 -53
49 -100 50 -186 4z m159 -8 c46 -36 73 -109 41 -109 -47 0 -150 -83 -237 -191
-54 -66 -99 -168 -105 -239 -3 -33 -9 -60 -13 -60 -4 0 -25 13 -46 28 -37 27
-40 34 -53 105 -12 67 -12 90 3 181 22 142 35 172 35 83 1 -50 4 -68 13 -65 7
3 15 20 19 40 10 64 105 165 203 217 69 36 103 39 140 10z m-447 -371 c-3 -8
-6 -5 -6 6 -1 11 2 17 5 13 3 -3 4 -12 1 -19z m12 -108 c1 -13 0 -13 -9 0 -5
8 -9 26 -9 40 l1 25 8 -25 c4 -14 8 -32 9 -40z"/>
<path d="M5976 2402 c-19 -31 -54 -152 -45 -157 5 -4 11 0 13 7 2 7 14 41 26
75 21 58 24 105 6 75z"/>
<path d="M5954 2248 c-24 -46 -120 -144 -155 -158 -30 -13 -39 -30 -16 -30 18
0 84 49 123 91 30 32 84 112 84 124 0 17 -22 0 -36 -27z"/>
</g>
</svg>
