<?xml version="1.0" standalone="no"?>
<!DOCTYPE svg PUBLIC "-//W3C//DTD SVG 20010904//EN"
 "http://www.w3.org/TR/2001/REC-SVG-20010904/DTD/svg10.dtd">
<svg version="1.0" xmlns="http://www.w3.org/2000/svg"
 width="338.000000pt" height="306.000000pt" viewBox="0 0 338.000000 306.000000"
 preserveAspectRatio="xMidYMid meet">

<g transform="translate(0.000000,306.000000) scale(0.100000,-0.100000)"
fill="#000000" stroke="none">
<path d="M2831 2158 c-46 -46 -75 -101 -121 -239 -23 -69 -28 -97 -23 -140 l5
-54 -55 -52 c-55 -52 -57 -53 -117 -53 -93 0 -143 -28 -196 -111 -25 -38 -49
-71 -55 -75 -16 -10 -57 34 -85 91 -13 29 -37 61 -53 73 -18 13 -35 40 -45 74
-10 29 -31 74 -47 101 -16 26 -29 50 -29 52 0 3 -17 30 -37 61 -31 47 -38 67
-41 120 -4 52 -1 69 13 84 22 24 14 36 -13 21 -23 -12 -36 -81 -26 -138 3 -21
24 -65 45 -99 21 -33 39 -64 39 -67 0 -4 11 -24 25 -45 14 -21 32 -62 41 -92
11 -36 28 -66 53 -90 20 -19 45 -52 55 -73 11 -20 35 -55 53 -77 43 -50 53
-46 121 53 61 89 93 107 185 107 l64 0 64 59 64 59 -2 63 c-2 65 28 172 82
295 22 49 86 114 112 114 7 0 13 5 13 10 0 24 -48 7 -89 -32z"/>
<path d="M518 2138 c-7 -21 9 -78 28 -99 18 -20 64 -26 64 -9 0 6 -9 10 -19
10 -11 0 -23 5 -26 10 -15 25 62 7 129 -30 81 -45 118 -49 174 -21 20 10 61
24 90 32 48 12 57 11 118 -10 60 -20 71 -21 117 -10 40 9 63 23 104 65 29 29
53 57 53 63 0 22 -30 10 -44 -17 -19 -37 -82 -78 -132 -86 -30 -5 -57 -1 -103
14 -69 24 -108 20 -200 -22 -60 -27 -115 -20 -182 23 -34 21 -66 33 -93 35
-36 2 -42 5 -46 30 -5 29 -25 43 -32 22z"/>
<path d="M2932 1978 c-23 -184 -76 -339 -160 -466 -166 -252 -386 -413 -722
-526 -134 -45 -141 -60 -16 -31 340 79 656 318 813 616 71 133 100 238 110
392 8 133 -8 143 -25 15z"/>
<path d="M330 1889 c0 -109 65 -284 157 -422 124 -187 358 -375 553 -446 130
-46 121 -30 -25 46 -173 90 -238 136 -352 246 l-83 80 32 20 c38 23 41 26 113
133 58 86 71 95 164 114 74 14 104 35 155 105 25 33 58 73 74 88 25 24 31 26
41 13 7 -9 17 -44 22 -78 4 -35 13 -96 18 -136 13 -94 38 -149 95 -210 34 -36
51 -66 66 -116 17 -54 27 -71 53 -86 18 -11 43 -20 57 -20 17 0 32 -10 45 -30
11 -16 32 -35 46 -41 24 -9 132 -8 209 3 26 3 29 -3 50 -87 5 -22 23 -56 40
-75 l30 -35 -14 35 c-7 19 -18 46 -24 60 -6 14 -13 41 -16 61 -8 48 -41 83
-70 73 -11 -4 -60 -9 -108 -11 l-88 -4 -34 37 c-19 21 -45 38 -60 39 -45 5
-74 32 -86 77 -19 73 -31 96 -65 123 -45 34 -88 125 -97 205 -23 208 -29 229
-70 251 -18 10 -25 7 -55 -27 -18 -22 -52 -63 -74 -91 -51 -68 -71 -80 -155
-98 -37 -8 -79 -23 -93 -33 -15 -10 -53 -58 -86 -107 -35 -52 -74 -97 -94
-109 l-33 -19 -20 24 c-74 94 -144 246 -184 398 -13 52 -27 97 -29 100 -3 2
-5 -20 -5 -50z"/>
</g>
</svg>
